<?xml version="1.0" standalone="no"?>
<!DOCTYPE svg PUBLIC "-//W3C//DTD SVG 1.1//EN" "http://www.w3.org/Graphics/SVG/1.1/DTD/svg11.dtd" >
<svg xmlns="http://www.w3.org/2000/svg" xmlns:xlink="http://www.w3.org/1999/xlink" version="1.1">
<metadata></metadata>
<defs>
<font id="masterwebfontregular" horiz-adv-x="1388" >
<font-face units-per-em="2048" ascent="1638" descent="-410" />
<missing-glyph horiz-adv-x="727" />
<glyph horiz-adv-x="0" />
<glyph unicode="&#xd;" horiz-adv-x="727" />
<glyph unicode=" "  horiz-adv-x="727" />
<glyph unicode="&#x09;" horiz-adv-x="727" />
<glyph unicode="&#xa0;" horiz-adv-x="727" />
<glyph unicode="!" horiz-adv-x="800" d="M14 731q0 170 72 303h121q-76 -113 -76 -295q0 -205 94 -204q70 0 70 75q0 61 -43 62q-6 0 -14 -2q-31 59 -31 123q0 41 12 86q45 166 213 165q168 0 240 -194q49 -133 49 -336q0 -201 -74 -334q-102 -184 -287 -184q-152 0 -241.5 84t-79.5 233h117q2 -205 194 -204 q135 0 201 157q47 113 47 254q0 119 -31 242q-45 178 -127 178q-66 0 -92 -66q-23 -53 -16 -122q84 -18 84 -146q0 -80 -54.5 -126t-136.5 -46q-211 0 -211 297z" />
<glyph unicode="&#x22;" horiz-adv-x="552" d="M145 -215q68 82 80 188q14 122 -35 220h166q27 -51 27 -127q0 -170 -104 -281h-134z" />
<glyph unicode="#" horiz-adv-x="491" d="M25 242q0 80 54 134t134 54t134 -54t54 -134t-54 -134.5t-134 -54.5t-134 54.5t-54 134.5zM25 733q0 80 54 134.5t134 54.5t134 -54.5t54 -134.5t-54 -134t-134 -54t-134 54t-54 134zM131 236q0 -78 76 -78q33 0 55.5 22.5t22.5 55.5q0 78 -76 77q-31 0 -54.5 -23 t-23.5 -54zM131 727q0 -78 76 -78q33 0 55.5 22.5t22.5 55.5q0 78 -76 78q-31 0 -54.5 -23.5t-23.5 -54.5z" />
<glyph unicode="$" horiz-adv-x="1026" d="M197 -6l491 1468h127l-487 -1468h-131z" />
<glyph unicode="%" horiz-adv-x="133" d="M-1341 0h129q39 -123 186 -188q121 -55 268 -56q152 0 254 51q199 100 205 246q2 52 -29 66q2 2 43 31q14 10 52 49q66 -39 65 -144q0 -211 -229 -325q-156 -78 -361 -80q-164 -2 -301 53q-158 61 -237 184q-43 66 -45 113z" />
<glyph unicode="&#x26;" horiz-adv-x="681" d="M78 1384h117q195 -195 254 -442q2 -10 10 -43l12 -59q4 -18 10 -99q4 -49 4 -79q2 -358 -278 -711h-125q86 119 156 270q20 45 49 121q49 131 49 332q0 96 -12 178q-27 178 -134 358q-33 55 -112 174z" />
<glyph unicode="'" horiz-adv-x="524" d="M154 92q0 65 55 96q27 14 53 15q45 0 77 -32t32 -77t-31 -75.5t-76 -30.5q-47 0 -78.5 28.5t-31.5 75.5z" />
<glyph unicode="(" horiz-adv-x="589" d="M201 258q0 43 30.5 72.5t73.5 29.5q45 0 74 -28.5t29 -73.5q0 -43 -30 -72.5t-73 -29.5t-73.5 29.5t-30.5 72.5zM201 707q0 43 30.5 72.5t73.5 29.5q45 0 74 -28.5t29 -73.5q0 -43 -30 -73t-73 -30t-73.5 30t-30.5 73z" />
<glyph unicode=")" horiz-adv-x="778" d="M74 1026l28 96l234 -75v241h92v-241l231 71l35 -88l-243 -67l163 -209l-82 -54l-151 209l-143 -213l-88 62l161 200z" />
<glyph unicode="*" horiz-adv-x="1390" d="M20 541q0 506 383 499q195 -2 263 -157q66 154 278 157q362 6 365 -512q2 -299 -183 -438q-125 -94 -376 -90v102q129 4 163 11q174 31 246 217q35 90 35 178q0 412 -250 426q-88 4 -155.5 -61.5t-67.5 -153.5v-242h-111v238q0 88 -61.5 152.5t-149.5 64.5 q-264 0 -264 -391q0 -431 449 -439v-106q-291 0 -416 133q-147 156 -148 412z" />
<glyph unicode="+" horiz-adv-x="133" d="M-602 -276q-14 109 100 141h-96v72q66 37 172 104q45 29 61 55h261v-92q-129 0 -226 -20q-53 -12 -121 -41h345v-82h-160q-94 0 -162 -45q-43 -29 -43 -66q0 -57 119 -61q104 -4 170 41q41 29 41 51h112q-2 -94 -129 -160q-63 -33 -196 -33q-231 0 -248 136z" />
<glyph unicode="," d="M20 385q-2 299 182.5 477t485.5 178q262 0 432 -139q186 -150 187 -405q0 -211 -119 -349q-125 -145 -332 -145q-172 0 -281 76q-125 86 -133 250q-10 193 115 282h-131v101h471v-101h-98q-104 0 -171 -72.5t-69 -179.5q-2 -123 94 -190q82 -57 211 -57q141 0 236 118 q88 109 88 254q0 203 -160 340q-127 109 -344 113q-256 4 -399.5 -145.5t-145.5 -409.5q-4 -270 153 -432t425 -154q344 10 442 242h127q-57 -182 -231 -275q-150 -80 -359 -77q-311 2 -491 194.5t-185 505.5z" />
<glyph unicode="-" horiz-adv-x="716" d="M72 469v104h522v-104h-522z" />
<glyph unicode="." horiz-adv-x="1474" d="M23 514q0 252 141 394t391 132v-102q-121 2 -186 -25q-45 -18 -111 -82q-117 -113 -117 -331q0 -168 90 -277q96 -117 263 -117q143 0 225 68q90 74 90 213q0 72 -33 121q-39 57 -106 57q-94 0 -95 -98q0 -14 3 -29h-113q-6 47 -6 101q0 164 59 270q129 231 412 231 q209 0 342 -168q127 -156 121 -368q-6 -252 -151.5 -383t-397.5 -123v102q203 0 315.5 107.5t112.5 308.5q0 164 -92 285q-100 133 -260 133q-133 0 -227.5 -81t-112.5 -212q78 35 127 35q109 -2 170 -101q53 -84 53 -198q0 -184 -131 -285q-115 -88 -307 -92 q-221 -4 -349 147q-121 141 -120 367z" />
<glyph unicode="/" horiz-adv-x="1855" d="M20 520q0 141 68 252q2 4 88 113q29 37 178 125l174 102q152 88 207 244h129q-45 -193 -250 -314q291 -35 420 -227q86 -129 88 -291q2 -240 -152.5 -382t-396.5 -142q-240 0 -393 139q-160 143 -160 381zM139 520q-2 -184 129 -299q125 -111 312 -112 q184 -2 302.5 112.5t121.5 298.5q2 184 -121.5 299t-309.5 117t-309 -114.5t-125 -301.5zM946 1243v109h756v-95q-111 -92 -205 -223q-227 -315 -237 -618q-4 -121 38 -201q53 -100 166 -102q80 -2 131.5 53t55.5 137q4 94 -43 172h125q18 -25 30.5 -85t10.5 -99 q-6 -137 -91.5 -214t-224.5 -77q-236 0 -303 254q-16 61 -16 147q0 344 264 695q70 92 125 147h-582z" />
<glyph unicode="0" horiz-adv-x="1032" d="M55 659q0 276 86 441q113 217 365 217q231 0 346 -215q90 -168 90 -422q0 -272 -84 -444q-111 -231 -354 -232q-248 0 -361 217q-88 168 -88 438zM170 651q0 -543 338 -542q180 0 260 202q55 139 55 355q0 546 -319 546q-334 0 -334 -561z" />
<glyph unicode="1" horiz-adv-x="716" d="M86 1012v88q201 0 258 100q18 33 27 96h96v-1284h-121v1000h-260z" />
<glyph unicode="2" horiz-adv-x="974" d="M43 16q6 332 309 498l213 117q207 113 207 276q0 127 -81 207t-208 80q-164 0 -245.5 -98.5t-69.5 -261.5h-121q-2 25 -2 49q0 190 121 302.5t313 112.5q186 0 302 -106.5t116 -290.5q0 -209 -238 -348q-14 -8 -237 -133q-195 -109 -248 -303h715v-101h-846z" />
<glyph unicode="3" horiz-adv-x="1028" d="M45 426h129q2 -147 91 -232t237 -85q133 0 219 78.5t86 209.5q0 129 -96 199q-84 61 -219 61h-97v101h101q106 0 180 57q82 63 82 166q0 111 -73 170t-185 59q-141 0 -224 -86t-81 -227h-117q-10 152 78 268q117 156 342 156q176 0 280 -82q117 -90 117 -262 q0 -182 -170 -262q100 -12 164 -113q59 -90 57 -196q-2 -199 -131 -308q-121 -102 -323 -102q-205 0 -323 112.5t-124 317.5z" />
<glyph unicode="4" horiz-adv-x="1026" d="M61 332v117l562 860h104v-877h191v-100h-191v-316h-131v316h-535zM180 442h414v623z" />
<glyph unicode="5" horiz-adv-x="999" d="M61 350q10 -174 129 -270q111 -90 289 -90q205 0 323 125t118 331q0 182 -111 295t-293 113q-152 0 -262 -80l55 410h537v106h-639l-96 -694h118q59 80 122 111.5t161 31.5q125 0 201 -94q72 -86 71 -215q0 -129 -82 -221q-84 -98 -210 -98q-285 0 -312 239h-119z" />
<glyph unicode="6" horiz-adv-x="991" d="M47 602q0 -610 449 -610q190 0 301.5 118.5t111.5 311.5q0 188 -106.5 300t-292.5 112q-229 -1 -350 -175q8 174 53 308q76 225 299 225q117 0 185.5 -62.5t70.5 -177.5h115q-2 168 -123 267q-84 70 -258 69q-455 0 -455 -686zM186 414q0 118 66 198q96 117 248 117 q90 0 168 -49q123 -78 123 -260q0 -141 -82 -231.5t-222 -90.5q-104 0 -186 60q-115 84 -115 256z" />
<glyph unicode="7" horiz-adv-x="1038" d="M82 1153v100h874v-98q-281 -360 -426 -749q-49 -131 -108 -398h-121q47 229 119 432q61 174 203 428q74 133 198 285h-739z" />
<glyph unicode="8" horiz-adv-x="1069" d="M121 381q0 109 57.5 197t157.5 122q-170 61 -170 265q0 154 125 243q110 82 270 82q158 0 264 -80q119 -88 119 -239q0 -190 -164 -269q207 -100 207 -309q0 -182 -119.5 -291.5t-304.5 -109.5q-190 0 -311 98q-131 104 -131 291zM240 375q0 -127 96 -205q88 -72 219 -72 t217 72q94 78 94 205q0 129 -92 200q-84 66 -217 66q-135 0 -221 -63q-96 -72 -96 -203zM287 963q0 -219 278 -220q106 0 183 58.5t77 161.5q0 104 -79 165.5t-185 61.5q-111 0 -188 -57q-86 -63 -86 -170z" />
<glyph unicode="9" horiz-adv-x="989" d="M45 858q0 193 111.5 311.5t302.5 118.5q449 0 448 -610q0 -686 -454 -686q-174 0 -258 69q-121 98 -123 267h114q2 -115 71 -177.5t185 -62.5q223 0 299 225q46 134 54 308q-121 -174 -351 -175q-186 0 -292.5 112t-106.5 300zM164 860q0 -182 123 -260q78 -49 168 -49 q151 0 247 117q66 80 66 198q0 172 -115 256q-82 59 -186 60q-139 0 -221 -90.5t-82 -231.5z" />
<glyph unicode=":" horiz-adv-x="1314" d="M29 485q0 -238 184 -368q162 -117 408 -117q281 0 446.5 155.5t165.5 434.5q0 395 -254 590q-227 174 -633 170v-103q74 0 127 -8q-10 -39 -10 -72q0 -121 112 -180q88 -47 220 -47q96 0 196 59q121 -186 121 -415q0 -215 -132 -345t-347 -130q-201 0 -332 90 q-152 104 -151 297q0 209 153 295q76 42 203 34v107q-166 8 -277 -60q-201 -123 -200 -387zM584 1180q0 22 6 45q217 -47 319 -144q-59 -41 -143 -41q-47 0 -88 15q-94 33 -94 125z" />
<glyph unicode=";" horiz-adv-x="1544" d="M18 332v133q117 135 189 201l182 168q2 10 2 20q0 74 -96 70q-89 -3 -107 -103q-8 -43 13 -84h-121q-6 29 -6 58q0 137 100 200q61 39 137 37q158 -4 189 -133q195 139 422 137q242 -2 391 -149.5t149 -386.5q0 -121 -47 -230q-51 -121 -145 -180q-145 -92 -371 -92v98 q279 0 387 185q55 94 55 215q0 188 -113.5 309t-301.5 121q-193 0 -346 -103q160 14 270 -73q168 -135 166 -336q-2 -199 -148 -314q-133 -106 -338 -106q-170 0 -264 35q-139 53 -172 188q-6 25 -6 43q0 16 11.5 50t11.5 48q0 25 -21 25q-37 0 -72 -51zM166 467 q68 -18 67 -82q0 -14 -14 -54t-8 -69q33 -168 317 -164q152 2 252 80q113 86 113 232q0 143 -98.5 234t-241.5 89q-70 -2 -125 -28q-37 -19 -100 -78q-31 -29 -162 -160z" />
<glyph unicode="&#x3c;" horiz-adv-x="1323" d="M23 375q14 252 176 360q0 55 24 119q70 178 279 186q68 2 130 -32.5t77 -96.5q41 125 217 129q133 4 207 -86q70 -82 69 -217v-63h-741q-104 0 -142 -15q-12 -59 3 -145q29 -168 155 -262q76 -55 228 -57q207 -2 321 155q61 84 53 213h121q0 -225 -139 -351t-367 -126 q-119 0 -190 25q-205 70 -277 278q-32 97 -24 195q-53 -74 -62 -199q-20 -303 195 -473q129 -102 344 -102q182 0 287 67q193 123 198 297h125q0 -231 -198 -360q-170 -113 -414 -115q-315 -2 -493.5 180t-161.5 496zM328 768q29 4 61 4h262q-2 66 -44 113t-105 47 q-98 0 -144 -68q-14 -23 -30 -96zM770 772h309q-6 160 -161 160q-138 0 -148 -160z" />
<glyph unicode="=" horiz-adv-x="133" d="M-672 -74q0 129 92 166v-86h58q-23 -29 -23 -84q0 -61 64 -92q49 -25 116 -25q68 0 119 29q59 33 66 96q6 61 -17 97h119q18 -53 15 -111q-8 -111 -101 -168q-80 -49 -198 -49q-309 0 -310 227z" />
<glyph unicode="&#x3e;" horiz-adv-x="1400" d="M-8 674h178q-129 -72 -129 -289q0 -145 74 -250q80 -115 217 -137q35 -6 98 -2q139 8 205 82q29 33 29 108q0 51 -21 80q-16 23 -65 51q-39 23 -39 39q0 49 139 50q158 0 147 -58q-2 -8 -65 -49q-25 -16 -35 -31q-25 -37 -25 -88q0 -180 232 -184q236 -4 338 186 q49 92 49 203q0 303 -264 375q-45 12 -111 12h-127q0 158 135 164q145 6 146 -160h119q0 266 -265 266q-102 0 -170.5 -59t-81.5 -160q-4 -35 -4 -96v-53h211q45 0 64 -2q98 0 166 -88q61 -80 63 -183q2 -82 -29 -151q-35 -80 -100 -113q-55 -27 -96 -31q-141 -10 -152 62 q-6 49 51 82q74 43 74 100q0 18 -2 31q-14 78 -102 104q-53 16 -158 17q-113 0 -166 -17q-92 -29 -104 -114q-12 -82 63 -115q61 -27 62 -72q0 -80 -123 -80q-129 0 -197 86q-61 78 -61 211q0 109 76 199q45 53 145 70q25 4 70 4h213v55q0 86 -15 135q-51 176 -241 178 q-88 2 -132 -20q-133 -66 -133 -246h119q1 160 146 160q135 0 135 -164h-551v-98z" />
<glyph unicode="?" horiz-adv-x="1855" d="M20 520q0 141 68 252q2 4 88 113q29 37 178 125l174 102q152 88 207 244h129q-45 -193 -250 -314q291 -35 420 -227q86 -129 88 -291q2 -240 -152.5 -382t-396.5 -142q-240 0 -393 139q-160 143 -160 381zM139 520q-2 -184 129 -299q125 -111 312 -112 q184 -2 302.5 112.5t121.5 298.5q2 184 -121.5 299t-309.5 117t-309 -114.5t-125 -301.5zM946 1245v107h756v-103l-395 -135l-103 -20q2 0 47 4l23 2h428v-92q-207 -117 -307 -236q-131 -155 -135 -356q-2 -121 40 -201q53 -100 164 -102q80 -2 131.5 53t55.5 137 q4 94 -43 172h125q18 -25 30.5 -85t10.5 -99q-6 -137 -91.5 -214t-224.5 -77q-233 0 -303 254q-16 59 -16 133q0 203 98 356q59 92 129 156q45 41 123 96h-500v101l363 133l98 20q-23 0 -33 -2q-29 0 -41 -2h-430z" />
<glyph unicode="@" horiz-adv-x="899" d="M27 895q0 162 110 254q102 86 269 86q186 0 298.5 -128t112.5 -316q0 -205 -182 -334q-47 -33 -191 -90q-113 -45 -129 -84q-10 -25 -2 -74h-116q-6 33 -7 57q0 109 162 174q82 33 168 74q178 84 178 281q0 139 -75 235q-82 104 -217 105q-113 0 -185 -58 q-78 -61 -78 -172q0 -170 133 -178q106 -6 111 92q4 78 -39 121h119q39 -49 39 -139q0 -92 -73 -139.5t-167 -40.5q-117 8 -178 81.5t-61 192.5zM170 76q0 37 24.5 61.5t61.5 24.5q86 0 86 -84q0 -86 -84 -86q-35 0 -61.5 24.5t-26.5 59.5z" />
<glyph unicode="A" horiz-adv-x="133" d="M-393 1370v115q55 46 118 46q7 0 15 -1q51 -4 98 -51q44 51 129 51h13q76 -4 121.5 -52t50.5 -124v-10q0 -113 -91 -162q-43 -24 -91 -24q-7 0 -15 1q-55 4 -78 19v-289q-12 39 -57 135q-27 57 -53 100v236q0 63 -66 63q-61 0 -94 -53zM-123 1270q30 -22 65 -23q8 0 15 2 q79 11 79 85q0 7 -1 14q-8 84 -73 84h-9q-76 -6 -76 -62v-100z" />
<glyph unicode="B" horiz-adv-x="1204" d="M20 520q0 141 68 252q23 29 88 113q25 31 178 125q131 80 224 233q18 31 49 109h127q-41 -174 -193 -308q283 0 459 -213q100 -123 102 -307v-6q0 -238 -152 -377q-154 -141 -397 -141q-240 0 -393 139q-160 143 -160 381zM129 1235q0 53 33 100q51 74 141 74 q53 0 100 -33q74 -51 74 -141q0 -53 -33 -100q-51 -74 -141 -74q-53 0 -100 33q-74 51 -74 141zM139 520v-6q0 -180 129 -293q125 -111 312 -112h6q180 1 296 113q118 114 122 298v6q0 180 -122 293q-124 115 -309 117h-6q-182 0 -303 -114q-123 -116 -125 -302zM215 1235 q0 -37 25.5 -61.5t62.5 -24.5t61.5 24.5t24.5 61.5t-25.5 61.5t-62.5 24.5t-61.5 -24.5t-24.5 -61.5zM748 1171q-1 54 32 101q51 74 142 74q53 0 100 -33q74 -51 74 -142q0 -53 -33 -100q-51 -74 -141 -74q-53 0 -101 33q-74 51 -73 141zM834 1171q0 -37 25.5 -61.5 t62.5 -24.5t61.5 25t24.5 61q0 37 -26 61.5t-62 24.5q-37 0 -61.5 -24.5t-24.5 -61.5z" />
<glyph unicode="C" horiz-adv-x="1048" d="M10 326v123q74 98 180 204l164 164q23 23 23 55q0 61 -74 61q-9 0 -18 -1q-49 -4 -80 -42t-31 -89q0 -29 10 -53h-118q-8 33 -9 63q0 100 54.5 161.5t152.5 67.5q17 1 32 1q167 0 196 -138q178 129 426 137h20q183 0 326 -104q-33 -35 -70 -90q-117 88 -270 90h-9 q-176 0 -297 -76q397 -55 431 -459q2 -23 2 -46q0 -124 -56 -222q-74 -133 -221 -133q-195 2 -225 106q-35 -106 -238 -106q-92 0 -156.5 60.5t-68.5 152.5v7q0 24 12 58q14 40 13 60q0 31 -35 31q-23 0 -66 -43zM154 455q77 -9 77 -103q0 -4 -16 -67q-8 -31 -8 -54 q0 -120 127 -120h2q76 0 118 48t42 124v116h112v-118q0 -176 138 -176q10 0 20 1q82 8 127 93q39 72 39 161q0 158 -103 279q-106 129 -262 129q-100 0 -159 -55q-123 -115 -254 -258z" />
<glyph unicode="D" horiz-adv-x="710" d="M23 303v7q-1 138 81 236q84 100 226 105h9q98 0 167 -41q6 90 6 99q-2 92 -47 157q-51 76 -139 76q-154 0 -181 -121h-114q47 221 303 221q145 0 225 -112q70 -95 70 -235v-15q-2 -82 -27 -234q-27 -160 -31 -231q-1 -13 -1 -26q0 -92 38 -179h-119q-18 33 -28 80 q-41 -86 -182 -92h-15q-118 0 -182 90q-57 80 -59 215zM143 309q4 -203 146 -203h8q104 4 141 84q12 29 19 76l10 90q0 7 25 148q-72 45 -141 45h-11q-96 -4 -150 -76q-47 -61 -47 -156v-8z" />
<glyph unicode="E" horiz-adv-x="747" d="M-8 887v98h635v-92l-301 -135q-18 -8 -66 -17h367v-96q-6 -2 -158 -65q-326 -137 -326 -316q0 -162 203 -162q84 0 142.5 49.5t58.5 131.5q0 43 -21 86h121q16 -33 19 -93v-9q0 -131 -119 -216q-76 -55 -205 -55q-127 0 -205 49q-119 75 -119 214q0 17 2 34 q12 131 125 227q98 86 238 121h-338v92l268 129q31 14 80 25h-401z" />
<glyph unicode="F" horiz-adv-x="1038" d="M35 332v133q135 150 186 194l119 105q66 57 68 82v10q0 36 -24 52q-25 17 -64 16h-9q-88 -2 -106 -103q-2 -12 -2 -24q0 -30 14 -60h-121q-6 29 -6 58q0 137 100 200q58 37 131 37h7q158 -4 188 -133q192 137 416 137h6q199 -2 344 -121q-23 -29 -68 -92 q-115 102 -272 103q-193 0 -346 -103q22 2 43 2q132 0 227 -75q166 -133 166 -331q0 -202 -147 -319q-133 -106 -338 -106q-170 0 -264 35q-139 53 -172 188q-6 25 -7 43q0 16 11.5 50t11.5 48q0 25 -21 25q-37 0 -71 -51zM180 467q70 -14 70 -82q0 -14 -14 -54 q-10 -28 -11 -51q0 -9 2 -18q32 -164 305 -164h13q152 2 252 80q112 85 112 229q0 148 -97 238q-95 88 -237 88h-6q-117 -2 -225 -106q-55 -54 -164 -160z" />
<glyph unicode="G" horiz-adv-x="1372" d="M20 442q-1 16 -1 32q0 237 169 376q110 88 294 88h24v-107q-102 0 -137 -8q-61 -14 -113 -61q-117 -109 -117 -307q0 -133 60 -230q69 -114 192 -114h2q94 0 150 71q49 63 49 162v129h123v-125q0 -102 47 -166q52 -73 148 -73h3q133 0 205 159q51 115 51 260v21 q-6 252 -135 452q-68 -63 -221 -63q-133 0 -213 55q-94 66 -94 193q0 27 6 53q-23 2 -121 10v101q279 -6 449 -72q221 -86 338 -293q104 -184 112 -422q1 -21 1 -40q0 -197 -72 -335q-98 -188 -308 -188q-104 0 -157 27q-63 33 -101 123q-72 -150 -260 -152h-5 q-180 0 -275 135q-82 115 -93 309zM629 1180q0 -70 61 -107q51 -31 125 -31q86 0 139 39q-53 49 -141 90q-51 23 -178 54q-6 -23 -6 -45z" />
<glyph unicode="H" horiz-adv-x="1015" d="M25 14q0 254 98 400q41 57 123 176q63 98 73 196q1 14 1 26q0 42 -15 73q-24 45 -77 45h-5q-76 -2 -84 -82q-2 -15 -2 -29q0 -57 27 -92h-119q-23 56 -23 106q0 18 3 35q13 80 71 125q54 41 124 41h13q197 -10 203 -215v-15q0 -111 -55 -212l-115 -166 q-109 -158 -114 -254q59 35 129 35q57 0 158.5 -50.5t158.5 -50.5q90 0 147.5 58.5t65.5 148.5q1 12 1 24q0 90 -54 155q-39 45 -150 110q-147 87 -147 234v10q2 90 64.5 141t154.5 51q94 0 153.5 -51t59.5 -143q0 -51 -23 -107h-120q24 43 24 83q0 12 -2 24q-14 86 -90 88 h-7q-77 0 -89 -82q-1 -10 -1 -20q0 -49 33 -91q27 -33 103 -80q111 -70 158 -135q55 -79 55 -188v-8q-4 -154 -96.5 -241t-247.5 -91h-4q-53 0 -160 47q-117 49 -166 53h-13q-94 0 -116 -82h-106z" />
<glyph unicode="I" horiz-adv-x="1357" d="M27 424q0 -262 243 -373q152 -69 367 -69h6q223 0 377 69q242 111 242 373q0 184 -123 276q41 37 41 107q0 233 -262 233q-88 0 -157 -47t-87 -131q-12 -55 -12 -135v-53h204q74 0 111 -10q-25 -45 -119 -72q-51 -14 -233 -14q-131 0 -187 -19q-102 -35 -102 -137 q0 -184 311 -184q111 0 193 30q116 43 116 131q0 63 -36 107q25 6 92 45q43 25 63 55q68 -76 68 -190q0 -115 -86 -199q-131 -127 -412 -127t-412 127q-86 84 -86 199q0 178 132 235q51 23 145 23h205v53q0 313 -256 313q-262 0 -262 -233l8 -33h119q-12 23 -11 49 q6 111 143 111h5q127 -2 135 -164h-135q-211 0 -305 -166q-43 -76 -43 -180zM451 416q-1 67 194 67q100 0 135 -8q61 -14 62 -63q0 -78 -195 -78q-197 0 -196 82zM780 770q8 162 135 164h5q140 0 143 -111q0 -38 -25 -69q-6 6 -16 6q-45 10 -107 10h-135z" />
<glyph unicode="J" horiz-adv-x="999" d="M37 469q0 47 10 137h100q-2 -90 109 -92h6q140 0 205 178q13 35 13 70q0 39 -15 78q-31 86 -107 86q-125 0 -125 -140q1 -34 11 -63h-117q-6 35 -6 66q0 63 24 114q63 131 215 131q86 0 145.5 -52t65.5 -138q130 188 368 188h17q170 -4 269 -76q-16 -14 -35 -41 q-12 -14 -31 -45q-43 27 -143 50q-29 6 -70 6q-215 0 -323 -195q23 4 45 4q113 0 202 -80q119 -104 119 -280q0 -72 -35.5 -147.5t-89.5 -123.5q-134 -114 -330 -114h-10q-227 4 -356 129t-131 350zM150 451q8 -240 198 -320q70 -29 184 -33h13q119 0 213 72q100 76 108 201 q1 13 1 25q0 93 -53 162q-60 77 -169 77q-41 0 -53 -4q-23 -8 -55 -51q-82 -113 -183 -154q-39 -16 -96 -16q-90 0 -108 41z" />
<glyph unicode="K" horiz-adv-x="1904" d="M16 18l177 316q-112 106 -112 273q0 14 1 28q10 188 184 317q98 74 312 84l153 273h127l-160 -283q139 -12 240 -86q47 88 168 92h9q124 0 183 -102q78 98 213 98h5q307 -6 307 -507v-13q-4 -520 -350 -520h-5q-260 2 -288 284h116q4 -88 56 -137q44 -42 114 -42 q11 0 23 1q121 10 176 156q39 102 39 250q0 420 -193 420q-61 0 -110 -37t-49 -97v-194h-111v182q0 55 -30.5 100.5t-84.5 47.5h-5q-65 0 -101 -54q127 -184 127 -377v-12q-5 -238 -149 -372q-132 -122 -339 -122q-20 0 -41 1q-199 10 -372 63q-14 4 -31 4q-57 0 -80 -35 h-119zM197 604q0 -94 53 -166l266 488q-102 -4 -183 -59.5t-116 -149.5q-20 -55 -20 -113zM209 135q17 14 45 14q24 0 55 -10q154 -45 309 -49h13q169 0 280 104q115 108 117 285v12q0 209 -135 336q-84 81 -252 97l-129 -232q55 45 132 45h7q82 -2 138.5 -67.5t56.5 -149.5 q0 -141 -95.5 -221t-238.5 -82h-8q-109 0 -223 51zM336 369q92 -43 147 -45h21q114 0 176 61q-39 -14 -76 -14q-57 0 -104 39q-60 50 -60 125q0 13 2 26zM549 551q0 -35 23.5 -59.5t58.5 -24.5q37 0 62.5 23.5t25.5 60.5q0 35 -25.5 59.5t-60.5 24.5t-59.5 -24.5 t-24.5 -59.5z" />
<glyph unicode="L" horiz-adv-x="1390" d="M20 461q-1 21 -1 41q0 246 178 413q131 123 323 123q141 0 234 -73q98 -78 98 -215v-5q-2 -129 -96 -231q-45 -49 -70 -82q-61 -82 -61 -203q29 29 74 30q3 0 6 -1q8 0 105 -72q92 -68 119 -67h3q131 16 201 205q53 145 55 305v8q0 259 -131 436q-147 201 -404 203h-11 q-327 0 -447 -232h-125q66 174 237 263q148 75 347 75h5q305 0 482 -225q160 -203 168 -518v-28q0 -207 -84 -382q-111 -229 -307 -229q-74 0 -119 31q-18 12 -58 61q-27 33 -53 37q-5 1 -9 1q-42 0 -42 -52q0 -43 14 -70h-110q-31 65 -31 135q-2 -61 -66 -104 q-55 -39 -120 -39q-154 0 -234 164q-59 119 -70 297zM141 483q0 -92 23 -149q58 76 159 76h5q152 -4 182 -152q2 115 49 197l109 135q61 78 63 151v6q-1 91 -61 137t-152 46h-8q-211 -4 -324 -221q-45 -86 -45 -226zM221 203q0 -39 26.5 -65.5t65.5 -26.5t67 25.5t28 64.5 t-28 66.5t-67 27.5t-65.5 -26.5t-26.5 -65.5z" />
<glyph unicode="M" horiz-adv-x="1296" d="M20 420q0 137 105 225q98 84 240 84h73q0 141 -116 141h-3q-133 -4 -133 -141v-8h-114q-1 12 -1 24q-1 101 63 163q68 67 185 67h7q125 -2 186 -92q45 -68 49 -254h-153q-264 0 -265 -221q0 -158 146 -238q117 -66 286 -66q238 0 377.5 128t139.5 364q0 238 -123 405 q-76 -63 -217 -63q-131 0 -213 55q-96 63 -97 189q0 29 7 57q-82 8 -113 8h-10v103q178 -4 270 -19q289 -45 450.5 -238.5t167.5 -488.5v-11q0 -120 -43 -235q-47 -127 -135 -208q-162 -152 -458 -152q-233 0 -381 92q-176 109 -177 330zM563 1182q0 -96 109 -129 q41 -12 80 -13q90 0 137 45q-111 99 -320 140q-6 -23 -6 -43z" />
<glyph unicode="N" horiz-adv-x="1495" d="M-31 670v104h455q0 53 -8 78q-27 82 -107 82q-104 0 -104 -143h-115q-3 17 -3 34q0 34 13 66q59 143 215 147h5q119 0 180 -88q35 -51 45 -186q1 -14 1 -37t-1 -53h-33q-174 0 -287 -117q-59 -61 -67 -151q-1 -13 -1 -25q0 -129 113 -205q103 -70 254 -70h8q109 0 195 58 q121 80 121 225q0 63 -33 113.5t-94 50.5q-73 0 -73 -75q0 -9 1 -19h-108q-2 33 -2 78q0 84 6 137q12 106 53 176q113 190 346 190t385 -215q84 -119 84 -309q0 -92 -45 -203q-47 -117 -113 -174q-158 -139 -360 -139h-6v102q172 0 287 125q111 119 114 293v12 q0 171 -114 297q-92 102 -228 103q-131 0 -207.5 -79t-83.5 -210q27 20 66 21q12 0 38.5 -6.5t39.5 -6.5q35 -12 71 -45q86 -78 95 -207q1 -12 1 -24q0 -160 -126 -266q-125 -109 -305 -109q-166 0 -291 61q-147 72 -191 215q-16 54 -16 108q0 28 4 56q27 176 166 230h-240z " />
<glyph unicode="O" horiz-adv-x="1370" d="M20 504q0 227 132 377q136 157 357 157h3h160v-104h-140q-186 0 -292 -129q-100 -119 -101 -309q0 -147 56 -252q68 -131 202 -131q88 0 142.5 67.5t54.5 155.5v180h119v-172q0 -84 49 -154q52 -77 133 -77h2q150 0 221 178q49 124 49 294v13q-4 301 -118 479 q-137 213 -422 213q-297 0 -414 -211h-127q133 313 532 314q342 0 515 -224q155 -200 155 -547q0 -231 -67 -395q-92 -223 -291 -227h-16q-202 0 -261 150q-58 -150 -246 -150h-10q-201 4 -297 160q-80 129 -80 344z" />
<glyph unicode="P" horiz-adv-x="1337" d="M20 428q0 121 62.5 211t177.5 121q39 10 107 10h120q-8 162 -120 164h-5q-136 0 -143 -111q-2 -27 10 -49h-118q-10 27 -11 64q0 100 86 155q72 47 179 47q188 0 229 -178q12 -53 12 -135v-53h-182q-104 0 -143 -15q-82 -31 -123 -137q-17 -44 -17 -92v-14 q23 -326 496 -326q281 0 412 127q86 84 86 203q0 45 -13 92q-59 -70 -147 -70q-94 0 -137 72q-32 52 -32 133q0 13 1 27h-168v53q0 92 14 137q56 179 259 179q11 0 22 -1q170 166 174 279h119q-18 -172 -180 -295q43 -16 59 -31q69 -59 94 -161q5 -23 6 -59q0 -18 -2 -38 q-4 -61 -18 -94q16 -18 26 -41q41 -86 43 -160v-13q0 -69 -20 -136q-96 -311 -600 -311q-496 0 -594 309q-20 66 -21 137zM758 770h57q2 16 19 78q2 12 30 84q-98 -23 -106 -162zM911 674q-1 -16 -2 -30q0 -91 56 -103q8 -2 16 -2q47 0 86 73q-62 62 -156 62zM922 772 q111 0 174 -49q1 13 1 25q0 148 -114 180q-35 -53 -61 -156z" />
<glyph unicode="Q" horiz-adv-x="143" d="M-1298 -213q0 72 58 122t132 50q29 0 61 -8v-94q-20 4 -36 4q-63 0 -84 -51q-8 -20 -8 -36q0 -25 18 -42q25 -27 78 -27q66 0 196 47q193 70 312 70q158 0 315 -76v442q45 36 113 136v-709h-107q-72 53 -137 72q-115 32 -182 32h-4q-117 0 -279 -61q-115 -43 -156 -51 q-51 -9 -91 -9q-13 0 -25 1q-174 16 -174 188z" />
<glyph unicode="R" horiz-adv-x="2004" d="M20 385q0 -131 62 -231q68 -111 186 -146q46 -13 109 -13q16 0 33 1q195 10 249 143q63 -143 252 -143q238 0 338 186q49 92 49 203q0 303 -264 375q-45 12 -110 12h-127q0 158 135 164h10q135 0 135 -160h119q0 266 -264 266q-102 0 -171 -59t-81 -160q-4 -35 -4 -96 v-53h211q45 0 63 -2q98 0 166 -88q61 -80 64 -183v-9q0 -73 -31 -142q-35 -80 -98 -115q-51 -29 -97 -29q-96 0 -167.5 58.5t-71.5 152.5v113h-111v-121q0 -90 -76 -147q-68 -53 -161 -53q-113 0 -174 94q-53 80 -54 198q0 233 221 269q27 4 70 4h213v55q0 86 -14 135 q-51 176 -242 178h-14q-77 0 -117 -20q-133 -66 -133 -246h119q0 160 145 160q135 0 135 -164h-160q-160 0 -253 -117q-88 -106 -89 -270zM1317 303v7q0 138 82 236q84 100 225 105h9q98 0 167 -41q6 90 6 99q-2 92 -47 157q-51 76 -139 76q-153 0 -180 -121h-115 q47 221 303 221q145 0 225 -112q70 -95 70 -235v-15q-2 -82 -27 -234q-27 -160 -30 -231q-1 -13 -1 -26q0 -92 38 -179h-119q-18 33 -29 80q-41 -86 -182 -92h-15q-118 0 -182 90q-57 80 -59 215zM1438 309q4 -203 145 -203h8q104 4 142 84q12 29 18 76l10 90q0 7 25 148 q-72 45 -141 45h-11q-96 -4 -149 -76q-47 -61 -47 -156v-8z" />
<glyph unicode="S" horiz-adv-x="129" d="M-1270 1161q0 258 535 258q381 0 481 -96q57 -55 57 -133q0 -178 -204 -178q-57 0 -109 18q-133 47 -135 166v6q0 72 49 105q-39 4 -135 4q-258 0 -371 -74q-43 -29 -43 -76q0 -67 72 -67h2q12 0 24 2v-95q-27 -4 -51 -4q-76 0 -124 45t-48 119zM-522 1221q-2 -10 -2 -19 q0 -59 80 -82q20 -6 36 -6q92 0 93 76q0 41 -35 66.5t-78 25.5q-82 0 -94 -61z" />
<glyph unicode="T" horiz-adv-x="1363" d="M20 549q0 188 68 325q84 170 244 170h14q145 -6 146 -141q0 -23 -10 -73q-9 -42 -9 -67v-9q12 -133 180 -133q63 0 109.5 35t54.5 96q-47 -37 -117 -37q-76 0 -125 41t-49 114q0 172 197 172q98 0 156 -81q51 -74 51 -177q0 -131 -80 -198.5t-213 -67.5q-270 0 -285 244 v7q0 23 10.5 63.5t10.5 60.5v6q-4 39 -46 39h-8q-70 -6 -110 -82q-68 -123 -68 -330q0 -143 68 -268q81 -149 211 -149h2q74 0 117 71q39 61 39 139v99h112v-94q0 -88 57.5 -153t143.5 -65q156 0 223 189q47 129 47 319q0 274 -117 457q-137 215 -397 215q-317 0 -442 -201 h-131q158 303 579 304q147 0 275 -62q137 -66 211 -184q143 -229 143 -518q0 -408 -174 -555q-86 -74 -199 -74q-215 0 -266 166q-44 -162 -220 -162h-9q-203 4 -308 184q-86 147 -86 365zM639 879q0 -31 26.5 -49.5t57.5 -16.5q72 4 74 61q2 33 -24.5 53.5t-59.5 18.5 q-74 -4 -74 -67z" />
<glyph unicode="U" horiz-adv-x="1363" d="M20 549q0 188 68 325q84 170 244 170h14q145 -6 146 -141q0 -23 -10 -73q-9 -42 -9 -67v-9q12 -133 180 -133q63 0 109.5 35t54.5 96q-47 -37 -117 -37q-76 0 -125 41t-49 114q0 172 197 172q98 0 156 -81q51 -74 51 -177q0 -131 -80 -198.5t-213 -67.5q-270 0 -285 244 v7q0 23 10.5 63.5t10.5 60.5v6q-4 39 -46 39h-8q-70 -6 -110 -82q-68 -123 -68 -330q0 -143 68 -268q81 -149 211 -149h2q86 0 86 81q0 -16 -6 -16q-14 0 -58 64q-63 94 -63 118q0 145 264 146q268 0 268 -156q0 -20 -64.5 -85.5t-64.5 -78.5q0 -76 107 -76q156 0 223 189 q47 129 47 319q0 274 -117 457q-137 215 -397 215q-317 0 -442 -201h-131q158 303 579 304q147 0 275 -62q137 -66 211 -184q143 -229 143 -518q0 -408 -174 -555q-86 -74 -199 -74q-245 0 -245 188q0 65 32 101q10 10 64 37q33 16 33 32q0 25 -62 43q-41 12 -80 13 q-145 0 -145 -52q0 -18 37 -41q49 -31 53 -34q33 -35 33 -101q0 -182 -206 -182h-9q-203 4 -308 184q-86 147 -86 365zM639 879q0 -31 26.5 -49.5t57.5 -16.5q72 4 74 61q2 33 -24.5 53.5t-59.5 18.5q-74 -4 -74 -67z" />
<glyph unicode="V" horiz-adv-x="1376" d="M10 616v99h547q-6 27 -41 86q-43 51 -121 51q-133 0 -176 -127h-113q2 18 15 61q43 98 137 144q49 24 138 24h7q141 0 213 -98q53 -72 66 -240h-303q-96 0 -164 -64.5t-74 -160.5q-1 -11 -1 -22q0 -157 136 -234q43 -25 102 -25q13 0 28 1q86 6 142 53t56 129v153h115 v-151q0 -82 74 -137q61 -48 134 -48q8 0 17 1q143 10 205 241q24 87 24 182q0 46 -6 95q-20 184 -131 375q-81 -64 -234 -64h-18q-156 4 -227 98q-49 66 -49 138q0 27 6 63q-31 6 -123 6v105h29q115 0 266 -27q530 -96 598 -674q8 -70 8 -125q0 -193 -78 -340 q-97 -184 -312 -184h-5q-80 0 -121 18q-88 39 -114 111q-50 -129 -264 -129h-25q-167 6 -265 112q-89 97 -89 243q0 15 1 30q6 106 70 188q25 33 49 43h-129zM629 1182q0 -139 188 -140q100 0 141 45q-66 53 -145 89q-43 18 -178 49q-6 -23 -6 -43z" />
<glyph unicode="W" d="M20 242q0 242 177 403q137 127 430 127h393q-43 166 -303 166q-285 0 -326 -156h-119q49 260 433 260q211 0 317 -79q117 -88 143 -293h-530q-227 0 -340 -92q-154 -125 -154 -328q0 -256 152 -387q143 -125 401 -125q203 0 344 119q146 120 146 310v15h123 q0 -190 -107 -323q-183 -232 -507 -232h-11q-305 4 -477 154q-184 160 -185 461z" />
<glyph unicode="X" horiz-adv-x="1380" d="M20 391q0 123 78 197t203 80q9 1 20 1q22 0 52 -3q55 -2 73 -2q147 0 156 92q1 10 1 19q0 74 -56 118q-55 45 -146 45q-27 0 -51 -4q55 -31 56 -111q0 -157 -168 -157h-2q-74 0 -120 46t-46 119q0 53 28 95q79 114 295 114h4q137 0 226 -67q96 -74 96 -207q0 -45 -12 -84 q-39 -120 -229 -120q-20 0 -42 1q-24 2 -47 2q-239 0 -248 -176v-18q0 -159 138 -236q43 -25 102 -25q13 0 27 1q86 6 142 53t56 129v153h115v-151q0 -82 74 -137q61 -48 134 -48q8 0 17 1q141 10 205 243q29 109 31 279v6q0 353 -226 522q-115 86 -292 94q-20 1 -39 1 q-231 0 -373 -132q-8 -8 -37 -49h-133q141 283 561 283h23q299 -6 469 -209q160 -190 163 -496v-29q0 -248 -65 -403q-93 -222 -311 -222q-11 0 -23 1q-63 4 -121 18q-88 37 -114 111q-35 -88 -158 -119q-44 -10 -109 -10h-22q-164 6 -259.5 115.5t-95.5 275.5zM172 829 q0 -65 68 -65h2q65 0 65 68q0 67 -67 67h-2q-66 0 -66 -70z" />
<glyph unicode="Y" horiz-adv-x="1474" d="M20 516q0 240 134.5 381t373.5 143v-102q-174 -4 -280.5 -124t-106.5 -296q0 -266 191 -368q74 -39 145 -39q133 0 216 79q74 71 74 183q0 14 -1 28q-4 57 -31 103q-33 57 -82 61q-13 1 -25 1q-98 0 -98 -89q0 -25 9 -55h-113q-12 61 -12 131q0 86 18 147q59 197 227 291 q88 49 238 49q221 0 358.5 -146t137.5 -370q0 -252 -164 -391q-154 -133 -410 -135v102q16 -3 32 -3q24 0 46 7q45 14 45 54q0 16 -29 123q-16 61 -16 104q0 164 129 215q37 14 90 14h3q105 0 155 -73q0 162 -106.5 276.5t-268.5 120.5h-18q-180 0 -287 -156 q-37 -53 -51 -125q35 20 98 21q170 0 231 -189q17 -54 17 -110v-6q-6 -176 -107.5 -273.5t-279.5 -99.5h-12q-220 0 -347 143q-123 139 -123 373zM1018 319q12 -43 31 -129q1 -22 -9 -53q94 47 158 129q41 53 41 119q0 51 -32.5 87t-84.5 36q-72 0 -96 -64q-12 -32 -12 -73 q0 -24 4 -52z" />
<glyph unicode="Z" horiz-adv-x="573" d="M201 1073q68 82 80 189q3 27 3 53q0 90 -38 166h166q26 -49 26 -122v-5q0 -170 -104 -281h-133z" />
<glyph unicode="[" horiz-adv-x="2347" d="M20 524q8 270 117 418q72 96 180 96q51 0 101 -24q47 23 88 26q197 14 227 -137q178 137 426 137q178 0 311 -79q43 39 99 55q43 8 86 18q27 6 114 6q387 0 416 -368h-473q-82 0 -117 -6q-57 -10 -114 -54q-123 -92 -121 -225q2 -152 139 -227q111 -61 275 -60 q113 2 206 21q150 31 160 96h125q-6 -43 -37 -78q-96 -109 -305 -137q-8 0 -72 -6q-123 -27 -122 -100q0 -117 213 -111q109 4 167 31q31 14 95 67q27 23 34 68q8 41 0 61h121q2 -20 2 -39q0 -137 -133 -221q-115 -72 -260 -71q-117 0 -170 12q-205 47 -201 184q2 94 74 121 q-123 16 -178 37q-71 26 -147 96q-53 49 -72 96q-59 -229 -258 -227q-195 2 -225 106q-35 -106 -238 -106q-92 0 -156.5 60.5t-68.5 152.5q-2 25 11 65.5t13 59.5q0 31 -35 31q-23 0 -65 -43v123q102 125 182 204l162 162q23 23 22 55q0 70 -92 62q-49 -4 -79.5 -42 t-30.5 -89q0 -29 10 -53h-119q-8 31 -8 61q0 61 29 117q-53 12 -107 -62q-84 -115 -84 -362q0 -319 180 -500h-149q-76 96 -115 248q-37 139 -33 274zM395 455q78 -8 78 -103q0 -4 -16 -67q-8 -31 -8 -54q0 -121 129 -120q76 0 117.5 48t41.5 124v116h113v-118 q0 -188 158 -175q82 8 127 93q39 72 39 161q0 145 -85 257t-225 145q-18 4 -49 4q-104 0 -166 -55q-107 -96 -254 -256zM860 860q322 -43 408 -332q45 113 194 201q74 43 256 43h330q-47 94 -108.5 130t-167.5 36q-233 0 -291 -143q-4 -10 -8 -29h-123q0 47 43 108 q-117 59 -228 62q-182 2 -305 -76z" />
<glyph unicode="\" horiz-adv-x="1298" d="M23 506q0 -182 67 -377q14 -39 62 -119h133q-166 227 -150 508q12 199 90 318q51 78 133 75q25 0 31 -12q-59 -76 -59 -133h123q2 10 8 29q63 143 291 143q106 0 167.5 -36t108.5 -130h-330q-276 0 -397 -158q-80 -104 -80 -227q0 -174 131 -278q115 -92 299 -111 q41 -4 133 -4q88 0 138 10l-107 -170h125q86 90 182 78q63 -8 64 -74q0 -27 -17 -57q-39 -72 -184 -72q-88 0 -135 33v-119q43 -23 160 -22q131 0 215 59q96 68 96 193q0 84 -48 133t-132 49q-37 0 -72 -10l119 188h-131q-41 -109 -303 -113q-164 -2 -275 60 q-137 76 -139 227q-2 139 121 225q84 59 231 60h473q-2 14 -6 51q-45 317 -409 317q-175 0 -261 -55q-35 37 -118 39q-150 2 -244 -133q-78 -111 -98 -273q-6 -49 -6 -112z" />
<glyph unicode="]" horiz-adv-x="1081" d="M37 1057q0 124 96 198q68 51 154 52q123 0 198 -97q53 -68 54 -153q0 -125 -97 -199q-70 -53 -155 -53q-125 0 -199 98q-51 68 -51 154zM104 0l676 1311h111l-676 -1311h-111zM143 1057q0 -41 23 -76q43 -68 123 -68q39 0 76 23q70 43 69 123q0 37 -22 74q-43 70 -123 69 q-39 1 -76 -22q-70 -43 -70 -123zM498 236q0 124 96 198q68 51 154 51q123 0 198 -96q53 -68 53 -153q0 -125 -96 -199q-70 -53 -155 -53q-125 0 -199 98q-51 68 -51 154zM604 236q0 -41 23 -76q43 -68 121 -68q43 0 77 23q68 43 68 123q0 41 -21 73q-41 68 -122 68 q-41 -1 -76 -21q-70 -41 -70 -122z" />
<glyph unicode="^" horiz-adv-x="681" d="M156 641q0 -41 2 96q12 90 41 226q51 156 151 292q33 45 96 109h117q-37 -49 -119 -178q-135 -213 -139 -533q-4 -334 256 -723h-127q-270 293 -278 711z" />
<glyph unicode="_" horiz-adv-x="133" d="M-987 1270q0 -240 295 -230q78 2 127 39q57 43 57 117q0 72 -46 112t-120 40q-133 0 -139 -113q-4 -70 55 -100q-111 20 -110 129q0 76 67 118q59 39 137 39q92 0 150 -41q66 -47 65 -137q0 -117 -73 -176l125 2q57 72 57 193q0 123 -100 194q-88 63 -217 64 q-133 0 -224 -58q-106 -68 -106 -192zM-707 1196q0 55 54 49q43 -6 39 -53q-4 -45 -43 -45q-50 0 -50 49z" />
<glyph unicode="`" horiz-adv-x="256" d="M20 487q0 -268 132 -477h133q-166 227 -150 508q12 199 90 318q51 78 150 77q33 0 90 -14q37 49 86 78q-84 49 -178 49q-184 0 -279 -188q-74 -148 -74 -351z" />
<glyph unicode="a" horiz-adv-x="133" d="M-596 1339v115q55 46 118 46q7 0 15 -1q51 -4 98 -51q44 51 129 51h13q76 -4 122 -52t50 -124v-10q0 -113 -90 -162q-43 -24 -92 -24q-7 0 -15 1q-55 4 -78 19v-232q-16 18 -53 48q-33 20 -57 28v338q0 63 -66 64q-61 0 -94 -54zM-326 1239q29 -21 63 -22q9 0 17 2 q79 11 79 84q0 7 -1 14q-8 84 -73 84h-9q-76 -6 -76 -62v-100z" />
<glyph unicode="b" horiz-adv-x="1241" d="M20 590q0 225 179 344q152 102 389 104h8q243 0 395 -127q166 -137 168 -381v-7q0 -165 -88 -290q-94 -135 -256 -167q162 -27 162 -158q0 -18 -6 -41q-47 -168 -340 -178h-27q-152 0 -252 63q-127 82 -127 246h117q0 -141 150 -188q61 -20 122 -19h21q188 10 209 100 q1 8 1 16q0 93 -157 93h-229v98q240 0 393 92q186 111 188 334v6q0 193 -127 299q-121 102 -321 105h-9q-172 0 -294 -78q-147 -92 -150 -260v-6q0 -139 99 -221q94 -80 239 -82h5q209 0 255 166q-41 -72 -174 -76h-7q-97 0 -167 51q-74 56 -74 146v14q6 100 88 153 q72 47 177 47q178 0 258 -153q25 -48 25 -113q0 -15 -1 -30q-10 -152 -127 -234q-102 -72 -262 -74h-7q-190 0 -312 103q-133 111 -134 303zM434 580q0 -104 141 -109h8q52 0 95 25q53 31 53 84q0 110 -156 110q-55 0 -98 -28.5t-43 -81.5z" />
<glyph unicode="c" horiz-adv-x="1339" d="M20 424q0 -262 244 -373q152 -69 367 -69h6q223 0 377 69q243 111 243 371q0 123 -63.5 215t-177.5 123q-39 10 -107 10h-135q8 162 135 164h5q136 0 143 -111q2 -27 -10 -49h118q4 12 9 33q0 168 -136 215q70 53 99 88q80 98 92 211h-119q-2 -57 -76 -162 q-29 -41 -119 -119h-13q-78 0 -144 -46q-72 -50 -90 -132q-12 -55 -13 -135v-53h205q205 0 260 -158q16 -47 17 -100q0 -115 -86 -199q-131 -127 -412 -127t-412 127q-86 84 -86 199q0 178 131 235q51 23 146 23h205v53q0 313 -256 313q-262 0 -263 -233l9 -33h118 q-12 23 -10 49q6 111 143 111h5q127 -2 135 -164h-135q-211 0 -306 -166q-43 -76 -43 -180z" />
<glyph unicode="d" horiz-adv-x="600" d="M-31 47v109q74 -49 185 -50q121 0 190 156q55 123 55 260t-55 258q-70 154 -190 154q-111 0 -185 -49v108q74 47 195 47q176 0 274 -178q80 -145 80 -340q0 -197 -78 -342q-96 -180 -276 -180q-121 0 -195 47z" />
<glyph unicode="e" horiz-adv-x="751" d="M0 887v98h631v-92q-492 -282 -492 -571q0 -102 57.5 -160t159.5 -58q168 0 193 162q3 23 3 44q0 69 -34 122h123q11 -18 21 -74q8 -46 8 -72v-10q-25 -280 -322 -280h-2q-231 0 -309 205q-18 49 -19 127q0 78 21 133q82 221 307 379q53 37 94 47h-440z" />
<glyph unicode="f" horiz-adv-x="1097" d="M20 524q0 182 121 334q147 184 398 184q334 0 411 -239h-125q-66 123 -231 133q-26 2 -49 2q-33 0 -58 -4q-156 -23 -250 -132.5t-96 -269.5v-14q0 -185 99 -282q127 -127 284 -127q141 0 234 63q133 92 137 219v12q0 137 -90 228q-10 10 -35 26q35 -29 47 -82 q6 -49 6 -59q0 -111 -72.5 -175.5t-185.5 -64.5q-111 0 -182.5 68t-71.5 178q0 113 73 183.5t187 76.5q20 1 40 1q151 0 247 -68q158 -114 158 -316v-20q-6 -174 -172 -291q-72 -51 -162 -74q-55 -14 -174 -16h-8q-102 0 -200 48q-103 50 -167 136q-113 152 -113 342z M432 528q0 -137 133 -137q59 0 97 36t38 95q0 61 -34 102.5t-93 41.5t-100 -39t-41 -99z" />
<glyph unicode="g" horiz-adv-x="1310" d="M149.5 887.5q126.5 140.5 339.5 140.5h150v-106h-135q-154 0 -257.5 -108.5t-103.5 -264.5q0 -213 125 -333t340 -120q229 0 367 152q133 145 133 379q0 252 -113 420q-130 196 -368 196h-2h-3q-283 0 -417 -192h-125q127 299 553 299q276 0 442 -217q154 -197 154 -482 q0 -297 -156 -475q-162 -188 -455 -188q-270 0 -428 135q-167 142 -167 406q0 218 126.5 358.5z" />
<glyph unicode="h" horiz-adv-x="1392" d="M23 471q0 -209 92 -338q97 -138 282 -138q13 0 25 1q195 10 250 143q63 -143 252 -143q238 0 338 186q49 92 49 203q0 303 -264 375q-45 12 -111 12h-172q0 164 180 164q145 0 146 -160h118q0 266 -264 266q-225 0 -289 -174q-12 -33 -12 -141v-53h256q45 0 64 -2 q98 0 165 -88q61 -80 64 -183v-9q0 -73 -31 -142q-35 -80 -98 -115q-51 -29 -96 -29q-96 0 -168 58.5t-72 152.5v129h-111v-137q0 -93 -72 -151q-62 -50 -140 -51q-12 0 -25 2q-121 10 -182 120q-51 90 -54 222v17q0 294 207 417q80 47 227 47h23v108h-12q-150 0 -215 -24 q-350 -129 -350 -545z" />
<glyph unicode="i" horiz-adv-x="1396" d="M-25 674h222q-160 -84 -160 -289q0 -131 61 -231q68 -111 187 -146q46 -13 108 -13q16 0 33 1q195 10 250 143q63 -143 252 -143q238 0 338 186q49 92 49 203q0 303 -264 375q-45 12 -111 12h-127q0 158 135 164h10q135 0 136 -160h118q0 266 -264 266q-102 0 -170.5 -59 t-81.5 -160q-4 -35 -4 -96v-53h211q45 0 64 -2q98 0 166 -88q61 -80 63 -183v-9q0 -73 -31 -142q-35 -80 -98 -115q-51 -29 -96 -29q-96 0 -168 58.5t-72 152.5v113h-110v-121q0 -90 -76 -147q-68 -53 -162 -53q-113 0 -172 92q-51 80 -51 198q0 131 104 207q92 68 230 68 h165v55q0 86 -14 135q-51 176 -242 178h-14q-77 0 -117 -20q-133 -66 -133 -246h119q0 160 145 160q135 0 136 -164h-564v-98z" />
<glyph unicode="j" horiz-adv-x="1329" d="M193 727q98 51 231 51h143q-4 76 -52 119t-124 43q-178 0 -178 -162h-121v5q0 122 88 194q81 67 207 67h4q305 0 309 -366h-245q-131 0 -213 -55q-93 -61 -93 -173q0 -9 1 -18q20 -321 474 -321h3q233 0 362 145q123 137 133 375q1 16 1 32q0 228 -134 402 q-146 193 -372 193q-13 0 -25 -1q-156 -6 -234 -40q-113 -49 -184 -152h-125q127 299 535 299q305 0 485 -205q174 -195 174 -504q0 -297 -153 -471q-158 -182 -447 -182h-6q-250 2 -412 94q-202 114 -202 342q0 201 170 289z" />
<glyph unicode="k" horiz-adv-x="1519" d="M20 467q0 47 11 137h100q-2 -90 109 -92h6q140 0 205 178q13 35 13 70q0 38 -15 78q-31 86 -107 86q-125 0 -125 -140q0 -34 10 -63h-116q-6 35 -6 66q0 63 24 114q63 131 215 131q86 0 145.5 -52t65.5 -138q130 188 368 188h17q268 -8 414 -233q84 -130 84 -284v-21 q-10 -297 -264 -435q-119 -63 -314 -67v102q195 4 318 103q135 106 137 297v7q0 148 -82 265q-90 131 -234 154q-39 6 -69 6q-215 0 -324 -195q23 4 45 4q113 0 203 -80q119 -104 119 -280q0 -72 -36 -147.5t-89 -123.5q-134 -114 -330 -114h-10q-227 4 -356 129t-132 350z M133 449q8 -240 199 -320q70 -29 184 -33h13q119 0 213 72q100 76 108 201q1 13 1 25q1 94 -53 162q-60 78 -169 77q-41 0 -54 -4q-23 -8 -55 -51q-82 -113 -182 -154q-39 -16 -96 -16q-91 0 -109 41z" />
<glyph unicode="l" horiz-adv-x="1572" d="M10 326v123q74 98 180 204l164 164q23 23 23 55q0 61 -74 61q-9 0 -18 -1q-49 -4 -80 -42t-31 -89q0 -28 10 -53h-118q-8 33 -9 63q0 100 54.5 161.5t152.5 67.5q17 1 32 1q167 0 196 -138q178 131 426 137h19q245 0 401 -150q154 -149 153 -391v-24q-6 -205 -125 -336 q-125 -139 -326 -139q-27 0 -53 2v98q16 -1 32 -1q157 0 255 110q98 109 97 266q0 17 -1 35q-14 184 -138 304t-308 122h-9q-176 0 -297 -76q397 -55 431 -459q2 -23 2 -46q0 -124 -56 -222q-74 -133 -221 -133q-195 2 -225 106q-35 -106 -238 -106q-92 0 -156.5 60.5 t-68.5 152.5v7q0 24 12 58q14 40 13 60q0 31 -35 31q-23 0 -66 -43zM154 455q77 -8 77 -101q0 -6 -16 -69q-8 -31 -8 -54q0 -120 127 -120h2q76 0 118 48t42 124v116h112v-118q0 -176 138 -176q10 0 20 1q82 8 127 93q39 72 39 161q0 145 -85 257t-224 145q-27 6 -60 6 q-97 0 -160 -59q-119 -111 -249 -254z" />
<glyph unicode="m" horiz-adv-x="1351" d="M20 424q0 -262 244 -373q152 -69 367 -69h6q223 0 377 69q243 111 243 371q0 123 -63.5 215t-177.5 123q-39 10 -107 10h-135q8 162 135 164h5q136 0 143 -111q2 -27 -10 -49h118q4 12 9 33q0 233 -263 233q-88 0 -156.5 -47t-86.5 -131q-12 -55 -13 -135v-53h205 q205 0 260 -158q16 -47 17 -100q0 -115 -86 -199q-131 -127 -412 -127t-412 127q-86 84 -86 199q0 178 131 235q51 23 146 23h205v53q0 313 -256 313q-262 0 -263 -233l9 -33h118q-12 23 -10 49q6 111 143 111h5q127 -2 135 -164h-135q-211 0 -306 -166q-43 -76 -43 -180z " />
<glyph unicode="n" d="M23 557q27 254 215 393q119 88 247 88q141 0 207 -32q186 -92 187 -285q0 -84 -52 -143q-20 -23 -65 -46q-53 -27 -70 -38q-57 -47 -57 -162q0 -94 57.5 -156.5t149.5 -62.5q143 0 256 155q61 86 84 246q8 59 8 121q0 250 -152 455q-135 182 -358 188h-32 q-113 0 -189 -25l-6 -2q-201 -68 -265 -207h-122q78 229 368 312q91 26 230 26h10q332 0 506 -290q127 -213 127 -480q0 -188 -64 -325q-94 -205 -258 -264q-55 -21 -137 -23h-16q-107 0 -183 51q-88 57 -119 166q0 -45 -4 -61q-41 -156 -190 -156q-227 0 -303 354 q-13 65 -13 134q0 34 3 69zM143 557q-3 -34 -2 -64q0 -99 29 -167q60 84 170 84h10q76 -4 125 -64q37 -37 47 -96q-8 44 -8 87t8 85q25 127 150 184q43 20 57 33q29 27 29 74q0 125 -107 184q-58 32 -131 32q-15 0 -31 -1q-152 -12 -242.5 -114.5t-103.5 -256.5zM229 205v-6 q0 -37 25 -61q27 -26 68 -29h5q35 1 61 25q26 26 28 67v5q0 34 -24 60q-26 26 -66 29h-5q-36 -1 -62 -25q-28 -26 -30 -65z" />
<glyph unicode="o" horiz-adv-x="1126" d="M20 387q0 -162 105 -256q78 -70 147 -96q53 -20 179 -37q-72 -27 -74 -121v-5q0 -133 201 -179q53 -12 170 -12q270 0 368 192q25 48 25 104q0 17 -2 35h-121q8 -20 0 -61q-8 -45 -35 -68q-63 -53 -94 -67q-57 -27 -168 -31q-13 -1 -26 -1q-187 0 -187 112q0 74 123 100 q31 0 71 6q209 31 306 137q31 35 36 78h-124q-8 -57 -148 -94q-80 -20 -219 -23h-9q-183 0 -292 76q-78 55 -98 103q-15 36 -15 112q0 130 121 221q57 43 115 54q35 6 117 6h473q-2 14 -7 51q-45 317 -409 317q-86 0 -115 -6q-100 -23 -110 -26q-68 -29 -127 -99 q-68 -78 -68 -143h123q12 92 115 137q78 35 184 35q190 0 276 -166h-329q-238 0 -318 -80q-29 -23 -80 -80q-80 -90 -80 -225z" />
<glyph unicode="p" horiz-adv-x="1349" d="M-31 678v98h621q-8 160 -178 164h-7q-67 0 -114 -38q-49 -40 -60 -109h-120q8 117 98 186q83 65 199 65h4q305 0 309 -366h-174q-70 0 -158 -23q-33 -8 -90 -45q-109 -70 -115 -178q-1 -10 -1 -20q0 -301 461 -301h3q238 0 367 141q121 133 133 375q1 21 1 42 q0 234 -126 398q-142 187 -379 187q-13 0 -27 -1q-154 -6 -233 -41q-113 -49 -184 -151h-125q127 299 534 299q305 0 486 -205q174 -195 174 -504q0 -295 -156 -469q-160 -180 -449 -180h-6q-598 6 -598 406q0 106 70 190q55 68 109 80h-269z" />
<glyph unicode="q" horiz-adv-x="145" d="M-1307 -201q0 98 60 146h129q-66 -59 -66 -129q0 -90 97 -90h823v462q76 68 121 160v-723h-1002q-162 0 -162 174z" />
<glyph unicode="r" horiz-adv-x="1204" d="M20 520q0 141 68 252q2 4 88 113q29 37 178 125l174 102q152 88 207 244h129q-45 -193 -250 -314q291 -35 420 -227q86 -129 88 -291v-6q0 -236 -152 -376q-154 -142 -397 -142q-240 0 -393 139q-160 143 -160 381zM139 520v-6q0 -180 129 -293q125 -111 312 -112h6 q180 1 296 113q118 114 122 298v6q0 180 -122 293q-124 115 -309 117h-6q-182 0 -303 -114q-123 -116 -125 -302z" />
<glyph unicode="s" horiz-adv-x="129" d="M-1270 1161q0 -74 48 -119t124 -45q25 0 51 4v95q-12 -2 -24 -2q-74 0 -74 67q0 47 43 76q113 74 367 74q258 0 370 -74q43 -29 43 -76q0 -67 -71 -67h-2q-12 0 -25 2v-95q27 -4 51 -4q76 0 124 45t48 120q0 257 -538 257q-535 0 -535 -258z" />
<glyph unicode="t" horiz-adv-x="1271" d="M-20 647v96h565q0 66 -48 109t-116 45h-7q-64 0 -109 -37q-48 -39 -52 -104h-119q0 117 86 182q78 59 199 61h9q278 0 286 -352h-240q-119 0 -215 -86q-66 -59 -69 -164v-9q0 -107 94 -183q78 -66 200 -94q36 -8 103 -8q28 0 61 1q121 6 195 41q264 123 268 494v8 q0 251 -125 410q-53 68 -86 96q-76 -61 -168 -82q-61 -14 -190 -16h-14q-210 0 -261 114q-8 18 -8 34q0 29 27 50q242 -90 307 -129q-29 -4 -57 -6q-125 29 -375 113v102q193 32 359 32q66 0 128 -5q379 -33 525 -404q57 -145 57 -290q0 -442 -311 -607q-57 -31 -148 -49 q-59 -12 -176 -12q-82 0 -168 16q-205 39 -305 191q-53 82 -53 207q0 162 139 235h-188zM344 1210q12 -35 102 -51q29 -5 76 -5q23 0 51 1q140 6 189 55q-39 33 -199 54q-20 3 -67.5 3t-122.5 -3q-18 0 -29 -21q-6 -12 0 -33z" />
<glyph unicode="u" horiz-adv-x="1351" d="M244 1014q43 23 102 23q11 0 23 -1q63 -4 99 -47q34 -41 35 -99q0 -3 -1 -7q-2 -53 -49 -117q-33 -45 -33 -109q0 -43 18 -71q66 -100 191 -101q80 0 125 29q88 55 100 180q2 17 2 34q0 63 -25 108v-9q0 -54 -43 -87q-42 -31 -97 -31h-13q-74 4 -121 48t-47 115 q0 86 56 138q52 48 131 47h12q129 -6 200 -125q60 -98 60 -234v-4q-2 -119 -70 -200q-95 -117 -263 -117h-11q-137 2 -226 78q-92 77 -92 204v11q2 70 35 125q20 23 47 79q1 5 1 10q0 50 -60 50q-63 0 -133 -109q-55 -137 -56 -245q0 -342 293 -447q86 -31 188 -31h23 q80 2 103 7q193 31 315 206q86 123 86 316q0 152 -51 291q-57 160 -166 237q-127 92 -277 92q-276 0 -405 -151q-12 -14 -33 -43h-127q6 18 27 51q158 248 538 248q328 0 500 -285q113 -186 115 -418v-7q0 -294 -164 -472q-166 -180 -463 -180q-158 0 -248 35 q-370 143 -370 555q0 317 219 430zM618 874q5 -58 62 -58q8 0 16 1q59 5 59 63q0 7 -1 15q-5 58 -63 58q-7 0 -15 -1q-59 -5 -59 -63q0 -7 1 -15z" />
<glyph unicode="v" d="M-20 674v98h585q-6 74 -51 120t-117 46q-172 0 -172 -158h-119q0 55 17 92q45 100 137 144q49 24 139 24h7q279 0 284 -366h-313q-84 0 -164 -76q-61 -57 -63 -205v-10q0 -172 137 -248q45 -25 102 -25q13 0 27 1q86 6 142 53t56 129v153h115v-151q0 -82 74 -137 q61 -48 134 -48q8 0 17 1q141 10 205 243q29 109 31 279v6q0 353 -225 522q-115 86 -293 94q-20 1 -39 1q-231 0 -373 -132q-8 -8 -37 -49h-133q141 283 561 283h23q299 -6 469 -209q160 -190 164 -496v-29q0 -248 -66 -403q-93 -222 -311 -222q-11 0 -23 1q-63 4 -121 18 q-88 37 -114 111q-35 -88 -158 -119q-44 -10 -109 -10h-22q-164 6 -259 115.5t-95 275.5q0 150 69 240q25 33 49 43h-167z" />
<glyph unicode="w" horiz-adv-x="1257" d="M20 403q0 172 115 273q109 96 283 96h221q-8 166 -184 166q-217 0 -217 -174v-10h-119q8 286 328 286h2q274 0 309 -272q0 47 14 135q41 135 232 135h145v-100q-40 10 -62 10q-17 0 -22 -6q-8 -10 -8 -20q0 20 6 20q12 0 53 -100q59 -143 60 -176q0 -84 -58.5 -134.5 t-146.5 -58.5q-22 -2 -47.5 -2t-55.5 2v-358q80 16 152 41q47 16 135 61v-117q-162 -76 -287 -90v-346h-110v336q-51 -5 -118 -5q-34 0 -71 1q-231 8 -370 90q-178 104 -179 317zM141 412q0 -117 71 -192t187 -97q112 -22 256 -21q50 0 103 2v570h-316q-129 0 -211 -66 q-90 -72 -90 -196zM868 573q15 -1 28 -1q158 0 159 108q0 49 -70 147q-36 51 -36 98q0 9 1 17q-82 -20 -82 -133v-236z" />
<glyph unicode="x" horiz-adv-x="899" d="M18 401q0 170 115 285t285 115t285.5 -116t115.5 -286q0 -172 -113.5 -284.5t-285.5 -112.5t-287 113.5t-115 285.5zM143 412q-1 -10 -1 -20q0 -104 59 -173q86 -102 217 -102q119 0 196.5 82t77.5 200q0 90 -57 162q-88 109 -227 109q-113 0 -186 -72.5t-79 -185.5z" />
<glyph unicode="y" horiz-adv-x="1474" d="M20 449q12 170 144 264q86 61 239 61q0 53 -8 78q-27 82 -106 82q-84 0 -101 -105q-3 -18 -3 -34q0 -21 5 -37h-116q-4 12 -4 34q0 15 2 35q4 47 10 64q53 143 213 147h5q119 0 179 -88q35 -51 45 -186q1 -14 1 -37t-1 -53h-92q-104 0 -153 -19q-70 -27 -107 -97 t-37 -150q0 -152 117 -232q99 -70 252 -70h8q109 0 195 58q120 79 120 223q0 65 -32.5 115.5t-94.5 50.5q-72 0 -72 -73q0 -10 1 -21h-109q-2 33 -2 78q0 84 6 137q12 106 54 176q113 190 346 190t385 -215q84 -119 84 -309q0 -92 -45 -203q-47 -117 -113 -174 q-158 -139 -361 -139h-6v102q172 0 287 125q111 119 115 293v12q0 170 -115 297q-92 102 -227 103q-131 0 -208 -79t-83 -210q27 20 65 21q12 0 39 -6.5t39 -6.5q35 -12 72 -45q86 -78 94 -207q1 -12 1 -24q0 -160 -126 -266q-125 -109 -305 -109q-168 0 -291 61 q-145 74 -188 220q-18 62 -18 131q0 18 1 37z" />
<glyph unicode="z" horiz-adv-x="573" d="M127 1354q0 76 27 127h165q-38 -75 -38 -164q0 -27 4 -55q12 -106 80 -189h-134q-104 111 -104 281z" />
<glyph unicode="{" horiz-adv-x="2195" d="M20 500q0 -299 132 -480h131q-143 215 -144 500q0 240 123 352q63 57 139 54q-6 -6 -24 -25q-143 -152 -144 -387q0 -225 121 -367q127 -152 348 -147q322 6 412 246q57 -147 227 -211q55 -20 179 -37q-72 -27 -74 -121q-4 -137 201 -184q53 -12 170 -12q270 0 368 192 q33 63 23 139h-121q8 -20 0 -61q-8 -45 -35 -68q-63 -53 -94 -67q-57 -27 -168 -31q-213 -8 -213 111q0 74 123 100q31 0 72 6q209 31 305 137q31 35 37 78h-125q-10 -66 -160 -96q-94 -18 -207 -21q-164 -2 -274 60q-137 76 -140 227q-2 133 121 225q57 43 115 54 q35 6 117 6h473q-2 14 -6 51q-45 317 -410 317q-84 0 -115 -4q-92 -12 -153 -51q-90 55 -209 55q-283 0 -412 -231q-59 -106 -59 -270q0 -53 6 -101h112q-2 14 -2 29q0 98 95 98q68 0 106 -57q33 -49 33 -121q0 -139 -90 -213q-82 -68 -225 -68q-166 0 -263 117 q-90 109 -90 277q0 219 117 331q66 63 111 82q66 27 186 25v102h-303q-442 0 -443 -540zM791 641q18 131 112 212t227 81q43 0 132 -29q-63 -76 -64 -139h123q12 92 115 137q78 35 184 35q190 0 276 -166h-329q-238 0 -318 -80q-100 -74 -135 -170q-53 152 -196 154 q-74 2 -127 -35z" />
<glyph unicode="|" horiz-adv-x="1339" d="M20 489q0 -178 82 -362q39 -88 80 -119h131q-174 154 -174 504q0 172 101 317q57 84 137 82q25 0 24 -16q-59 -66 -59 -129h123q12 92 115 137q78 35 184 35q190 0 276 -166h-329q-137 0 -219 -29q-100 -37 -179.5 -130t-79.5 -226q0 -162 105 -256q78 -70 147 -96 q53 -20 179 -37q-74 -27 -74 -121q0 -139 201 -184q55 -12 170 -12q270 0 368 192q33 63 23 139h-121q4 -12 4 -26q0 -100 -105 -154q-80 -41 -194 -45q-72 -2 -133 18q-82 29 -82 89q0 82 123 102q31 0 71 6q209 31 306 137q31 35 36 78h-124q-10 -66 -160 -96 q-94 -18 -207 -21q-164 -2 -274 60q-139 76 -140 227q0 131 115 221q80 63 258 64h453q-2 14 -7 51q-45 317 -409 317q-172 0 -252 -51q-41 33 -121 33q-145 0 -246 -131q-82 -106 -110 -266q-12 -68 -13 -136z" />
<glyph unicode="}" horiz-adv-x="716" d="M72 254v133h522v-133h-522zM72 461v133h522v-133h-522z" />
<glyph unicode="~" horiz-adv-x="1642" d="M23 506q0 -182 67 -377q14 -39 62 -119h133q-166 227 -150 508q12 199 90 318q51 78 133 75q23 0 31 -14q-8 -12 -12 -25q-16 -33 -17 -92h119q0 158 172 158q72 0 117 -46t51 -120h-547v-98h129q-25 -10 -49 -43q-70 -90 -69 -240q0 -166 95 -275.5t259 -115.5 q80 -2 131 10q123 31 158 119q27 -74 114 -111q33 -14 121 -18q236 -12 334 221q70 164 66 432q-4 305 -164 496q-170 203 -469 209q-381 6 -547 -221q-6 -6 -37 -62h133q115 197 449 180q178 -8 293 -94q227 -170 225 -528q-2 -170 -31 -279q-63 -233 -205 -243 q-84 -6 -151 47q-74 55 -74 137v151h-115v-153q0 -82 -56 -129t-142 -53q-74 -6 -129 24q-141 78 -138 258q2 147 64 205q80 76 164 76h313q-6 367 -285 366q-92 0 -145 -24q-6 -2 -35 -19q-59 27 -108 27q-150 2 -244 -131q-78 -111 -98 -275q-6 -49 -6 -112z" />
<glyph horiz-adv-x="860" />
<glyph unicode="&#xa0;" horiz-adv-x="122" d="M37 715v354h289v-354h-289z" />
<glyph unicode="&#xa1;" horiz-adv-x="370" d="M109 41q0 59 59 59t59 -59t-59 -59t-59 59z" />
<glyph unicode="&#xa2;" horiz-adv-x="1318" d="M23 506q0 168 55 301q70 168 207 205q-33 45 -33 106q0 166 215 232q121 37 272 36q469 0 469 -294q0 -135 -129 -189q49 -66 72 -180q4 -20 6 -51h-473q-82 0 -117 -6q-57 -10 -114 -54q-123 -92 -121 -225q2 -152 139 -227q111 -61 274 -60q113 2 207 21q150 31 160 96 h125q-6 -43 -37 -78q-96 -109 -305 -137q-8 0 -72 -6q-123 -27 -123 -100q0 -117 213 -111q109 4 168 31q31 14 95 67q27 23 34 68q8 41 0 61h121q2 -20 2 -39q0 -137 -133 -221q-115 -72 -260 -71q-117 0 -170 12q-205 47 -201 184q2 94 74 121q-125 16 -178 37 q-70 27 -148 96q-104 94 -104 256q0 213 221 342q74 43 256 43h330q-61 166 -277 166q-229 0 -290 -143q-4 -10 -9 -29h-122q0 66 67 143q-4 4 -29 4q-111 4 -174 -149q-43 -104 -51 -246q-16 -281 150 -508h-133q-23 35 -62 119q-68 197 -67 377zM371 1126q-5 -92 116 -133 q92 47 248 47q166 0 264 -61q92 29 95 119q4 184 -371 184q-109 0 -209 -31q-139 -43 -143 -125z" />
<glyph unicode="&#xa3;" horiz-adv-x="1318" d="M23 506q0 168 59 305q74 172 217 203q-35 45 -35 106q0 150 180 217q132 49 308 49q477 0 477 -270q0 -68 -47 -117t-115 -61q70 -80 96 -215q4 -20 6 -51h-473q-82 0 -116 -6q-57 -10 -115 -54q-123 -92 -121 -225q2 -152 139 -227q111 -61 275 -60q113 2 207 21 q150 31 159 96h125q-6 -43 -37 -78q-96 -109 -305 -137q-8 0 -71 -6q-123 -27 -123 -100q0 -117 213 -111q109 4 168 31q31 14 94 67q27 23 35 68q8 41 0 61h120q2 -20 3 -39q0 -137 -134 -221q-115 -72 -260 -71q-117 0 -170 12q-205 47 -200 184q2 94 73 121 q-125 16 -178 37q-70 27 -147 96q-104 94 -105 256q0 213 221 342q74 43 256 43h330q-61 166 -276 166q-229 0 -291 -143q-4 -10 -8 -29h-123q0 61 59 133q-2 16 -35 16q-82 -2 -133 -79q-78 -119 -90 -318q-16 -281 150 -508h-133q-23 35 -62 119q-68 195 -67 377z M383 1126q-4 -92 117 -133q92 47 248 47q39 0 57 -2q-49 55 -45 127q4 84 74 111q-31 6 -99 6q-109 0 -209 -31q-139 -43 -143 -125zM877 1147q0 -49 43 -78t94 -29q98 0 98 88q0 74 -72 103q-27 10 -53 10q-43 0 -76.5 -25.5t-33.5 -68.5z" />
<glyph unicode="&#xa4;" horiz-adv-x="524" d="M47 20h420v-47h-420v47z" />
<glyph unicode="&#xa5;" horiz-adv-x="1118" d="M20 387q-2 -143 89 -244q84 -94 227 -131q74 -18 215 -22q262 -6 369 73v-296q-18 47 -97 71q-61 20 -125 21q-117 0 -276 -78q-131 -63 -184 -64q-90 0 -82 78t84 78q18 0 41 -6v102q-29 6 -58 6q-86 0 -136 -50t-50 -136q0 -70 31 -111q55 -74 155 -73q80 0 219 61 q186 82 248 82q70 0 135 -35q74 -39 97 -98h114v598h-108q-39 -57 -156 -94q-66 -20 -219 -23q-168 -2 -277 60q-133 76 -137 231q-4 137 121 225q84 59 232 60h473q-2 14 -7 51q-45 317 -409 317q-115 0 -184 -20q-102 -31 -177 -121q-59 -72 -59 -133h123q2 10 8 29 q63 143 291 143q106 0 167.5 -36t108.5 -130h-329q-276 0 -398 -158q-78 -100 -80 -227z" />
<glyph unicode="&#xa6;" horiz-adv-x="552" d="M145 -215q68 82 80 188q14 122 -35 220h166q27 -51 27 -127q0 -170 -104 -281h-134zM168 477q0 65 55 96q27 14 53 15q45 0 77 -32t32 -77t-30.5 -75.5t-75.5 -30.5q-47 0 -79 28.5t-32 75.5z" />
<glyph unicode="&#xa7;" horiz-adv-x="1126" d="M20 387q0 213 222 342q74 43 256 43h329q-61 166 -276 166q-229 0 -291 -143q-4 -10 -8 -29h-123q0 76 80 156q-150 61 -150 198q0 164 215 230q121 37 273 36q477 0 477 -270q0 -68 -47 -117t-115 -61q70 -80 96 -215q4 -20 7 -51h-473q-82 0 -117 -6q-57 -10 -115 -54 q-123 -92 -121 -225t113 -211q76 -53 143 -67q49 -10 158 -9q350 6 367 117h124q-6 -43 -36 -78q-96 -109 -306 -137q-8 0 -71 -6q-123 -27 -123 -100q0 -117 213 -111q109 4 168 31q31 14 94 67q27 23 35 68q8 41 0 61h121q2 -20 2 -39q0 -137 -133 -221q-115 -72 -260 -71 q-117 0 -170 12q-205 47 -201 184q2 94 74 121q-125 16 -179 37q-70 27 -147 96q-104 94 -105 256zM178 1126q-4 -92 117 -133q92 47 248 47q39 0 57 -2q-49 55 -45 127q4 84 74 111q-31 6 -99 6q-109 0 -208 -31q-139 -43 -144 -125zM672 1147q0 -49 43 -78t94 -29 q98 0 98 88q1 74 -71 103q-27 10 -54 10q-43 0 -76.5 -25.5t-33.5 -68.5z" />
<glyph unicode="&#xa8;" horiz-adv-x="1353" d="M20 463q6 -352 285 -510q137 -78 334 -78q248 0 473 129v-270h-770q-141 0 -141 69q0 68 57 125h-131q-49 -45 -49 -127q0 -172 176 -172h977v523h-111q-186 -168 -450 -168q-301 0 -439 188q-86 117 -86 274q0 225 129 342q162 147 396 148q348 0 446 -231 q35 -84 33 -148q-6 -133 -87 -219t-212 -88q-137 -4 -223 67q-57 47 -58 140q0 104 74 159q68 51 174 52h66v100h-471v-100h137q-104 -57 -107 -199q-4 -168 119 -254q104 -74 281 -74q193 0 310.5 116t119.5 308q2 229 -191 361q-168 115 -407 114q-276 0 -459 -147 q-199 -160 -195 -430z" />
<glyph unicode="&#xa9;" horiz-adv-x="1341" d="M23 471q0 -209 92 -338q104 -147 307 -137q195 10 250 143q63 -143 252 -143q238 0 338 186q49 92 49 203q0 303 -264 375q-45 12 -111 12h-172q0 164 180 164q145 0 146 -160h118q0 266 -264 266q-225 0 -289 -174q-12 -33 -12 -141v-53h256q45 0 64 -2q98 0 165 -88 q61 -80 64 -183q2 -78 -31 -151q-35 -80 -98 -115q-51 -29 -96 -29q-96 0 -168 58.5t-72 152.5v129h-111v-137q0 -94 -71.5 -151.5t-165.5 -48.5q-121 10 -182 120q-51 90 -54 222q-6 307 207 434q86 51 250 47v108q-159 1 -227 -24q-350 -129 -350 -545zM385 1270 q0 -240 295 -230q78 2 127 39q57 43 57 117q0 72 -46 112t-120 40q-133 0 -139 -113q-4 -70 55 -100q-111 20 -110 129q0 76 67 118q59 39 138 39q92 0 149 -41q66 -47 66 -137q0 -117 -74 -176l125 2q57 72 57 193q0 123 -100 194q-88 63 -217 64q-133 0 -223 -58 q-106 -68 -107 -192zM666 1196q0 55 53 49q43 -6 39 -53q-4 -45 -43 -45q-49 0 -49 49z" />
<glyph unicode="&#xaa;" horiz-adv-x="1323" d="M23 506q0 -182 67 -377q14 -39 62 -119h133q-166 227 -150 508q12 199 90 318q51 78 133 75q23 0 35 -12q-59 -72 -59 -133h123q2 10 8 29q63 143 291 143q106 0 167.5 -36t108.5 -130h-330q-238 0 -317 -80q-29 -23 -80 -80q-80 -90 -80 -225q0 -141 90 -242 q84 -92 226 -129q74 -18 215 -22q262 -6 368 74v-301q-18 47 -96 71q-61 20 -125 21q-117 0 -276 -78q-131 -63 -185 -64q-90 0 -82 78t84 78q18 0 41 -6v102q-29 6 -57 6q-86 0 -136 -50t-50 -136q0 -70 30 -111q55 -74 156 -73q80 0 219 61q186 82 248 82q70 0 135 -35 q74 -39 96 -98h115v602h-108q-45 -59 -156 -94q-66 -20 -219 -23q-164 -2 -275 60q-137 76 -139 227q-2 133 121 225q57 43 115 54q35 6 116 6h473q-2 14 -6 51q-45 317 -409 317q-170 0 -262 -55q-37 37 -121 39q-150 2 -244 -133q-78 -111 -98 -273q-6 -49 -6 -112z" />
<glyph unicode="&#xab;" horiz-adv-x="1183" d="M131 223l356 363l-335 329l81 84l330 -337l334 329l82 -78l-336 -342l348 -342l-86 -84l-344 347l-352 -349z" />
<glyph unicode="&#xac;" horiz-adv-x="999" d="M111 455v102h309v307h121v-307h311v-102h-311v-299h-121v299h-309z" />
<glyph unicode="&#xad;" horiz-adv-x="716" d="M72 469v104h522v-104h-522z" />
<glyph unicode="&#xae;" horiz-adv-x="2277" />
<glyph unicode="&#xaf;" horiz-adv-x="2277" />
<glyph unicode="&#xb0;" horiz-adv-x="2277" />
<glyph unicode="&#xb1;" horiz-adv-x="1796" d="M20 387q1 -162 105 -256q78 -70 147 -96q53 -20 179 -37q-72 -27 -74 -121q-4 -137 201 -184q53 -12 170 -12q270 0 368 192q33 63 23 139h-121q8 -20 0 -61q-8 -45 -35 -68q-63 -53 -94 -67q-57 -27 -168 -31q-213 -8 -213 111q0 74 123 100q31 0 71 6q209 31 306 137 q31 35 36 78h-124q-10 -66 -160 -96q-94 -18 -207 -21q-164 -2 -274 60q-137 76 -140 227q-2 139 121 225q84 59 232 60h473q-2 14 -7 51q-45 317 -409 317q-115 0 -184 -20q-102 -31 -177 -121q-59 -72 -59 -133h123q2 10 8 29q63 143 291 143q106 0 167.5 -36t108.5 -130 h-329q-276 0 -398 -158q-80 -104 -80 -227zM1044 932v98h631v-92q-227 -131 -334 -242q-159 -165 -159 -366q0 -104 58 -165t161 -61q168 0 192 162q14 96 -30 166h123q12 -18 21 -73.5t7 -82.5q-25 -281 -323 -280q-231 0 -310 205q-35 90 -12 229q25 158 170 322 q63 72 152 133q53 37 94 47h-441z" />
<glyph unicode="&#xb2;" horiz-adv-x="987" d="M20 442q0 190 120.5 312.5t310.5 122.5t312 -120t122 -311q0 -190 -120 -312t-310 -122t-312.5 120t-122.5 310z" />
<glyph unicode="&#xb3;" horiz-adv-x="1196" d="M23 635l329 -244l-129 -385l334 236l336 -236l-133 385l334 244h-412l-125 385l-129 -385h-405z" />
<glyph unicode="&#xb4;" horiz-adv-x="1363" d="M20 549q0 188 68 325q88 178 258 170q145 -6 146 -141q0 -23 -10.5 -73t-8.5 -76q12 -133 180 -133q63 0 109.5 34.5t54.5 96.5q-47 -37 -117 -37q-76 0 -125 41t-49 114q0 172 197 172q98 0 156 -81q51 -74 51 -177q0 -131 -80 -198.5t-213 -67.5q-270 0 -285 244 q-2 23 10.5 70t10.5 67q-4 43 -54 39q-70 -6 -110 -82q-68 -123 -68 -330q0 -143 68 -268q82 -150 213 -149q74 0 117 71q39 61 39 139v99h112v-94q0 -88 57.5 -153t143.5 -65q270 1 270 523q0 252 -137 389q-115 115 -414 119q-307 4 -530 -105v113q88 18 88 55 q0 12 -14 21q-43 27 -43 75q0 49 61 88q125 78 455 78q584 0 583 -241q0 -102 -82 -142q150 -162 154 -426q6 -430 -174 -583q-86 -74 -199 -74q-215 0 -266 166q-45 -166 -229 -162q-203 4 -308 184q-86 147 -86 365zM244 1284q-4 -14 28 -41q6 -6 7 -14q-1 -9 -9 -21 q154 33 342 33q147 0 230 -12q111 -16 192 -68q25 6 40.5 27.5t10.5 44.5q-25 123 -448 123q-287 0 -373 -49q-18 -10 -20 -23zM639 879q0 -31 26.5 -49.5t57.5 -16.5q72 4 74 61q2 33 -24.5 53.5t-59.5 18.5q-74 -4 -74 -67z" />
<glyph unicode="&#xb5;" horiz-adv-x="593" d="M55 -4v106h172v828h-172v96h291v-924h182v-106h-473zM217 1229q0 71 72 71t71 -71q0 -72 -71 -72q-72 0 -72 72z" />
<glyph unicode="&#xb6;" horiz-adv-x="1056" d="M43 930v90h440v-90h-196l241 -780l238 780h-195v90h437v-90l-121 -2l-299 -922h-127l-299 924h-119z" />
<glyph unicode="&#xb7;" horiz-adv-x="1148" d="M47 -4v106h109l338 414l-338 404h-109v100h471v-100h-213l262 -322l267 324l-224 -2v100h484v-100h-113l-334 -404l334 -414h113v-106h-484v106h221l-262 318l-266 -318h215v-106h-471z" />
<glyph unicode="&#xb8;" horiz-adv-x="593" d="M57 -2v100h172v1276h-172v96h473v-96h-182v-1276h182v-100h-473z" />
<glyph unicode="&#xb9;" horiz-adv-x="983" d="M8 1376v97h441v-97h-197l221 -1235l254 1235h-190v97h436v-97h-121l-307 -1378h-156l-262 1378h-119z" />
<glyph unicode="&#xba;" horiz-adv-x="1101" d="M25 -2v100h108l346 676l-313 600h-121v94h459v-94h-197l242 -481l250 481h-211v94h471v-94h-125l-322 -608l334 -668h125v-100h-508v100h250l-270 543l-279 -543h211v-100h-450z" />
<glyph unicode="&#xbb;" horiz-adv-x="2048" d="M88 154v716h461q160 86 270 88l148 5q104 -20 180 -100.5t90 -186.5q-10 -59 -55 -97t-107 -38q-55 0 -106 30.5t-68 79.5l45 82q0 -45 36 -81t81 -36q72 0 72 113q-68 109 -185 143q-49 14 -94 15q-47 0 -102 -19l-242 -147v-406q246 0 352 -168q57 -39 121 -38 q113 0 174 84l-143 36l-17 70l-65 8l-4 70l-78 8l-25 78l-8 90q-4 16 -4 18q0 59 49 60q49 0 49 -70v-82l185 -8q94 57 139 152q27 55 33 90h393q76 0 94 53l4 25q0 35 -25.5 64.5t-60.5 29.5h-495q-23 0 -70 28q-23 10 -45 41h598q68 0 120 -45t52 -110q0 -59 -35 -104.5 t-92 -55.5h-393l28 -61q53 -20 62 -74q0 -55 -16 -82q16 -43 16 -78q0 -33 -16 -70l-78 -36q6 -20 6 -41q0 -123 -154 -123q-88 -37 -172 -37q-80 0 -172 33q-94 150 -262 149q-35 0 -45 -2l-16 -65zM340 225v578h86v-578h-86zM979 414q18 -70 76.5 -116t130.5 -46 q29 0 55 6q49 6 86 45q6 6 6 12q0 27 -96 27q-131 0 -131 -35q0 -6 8 -12l-12 98q10 -41 63 -41q55 0 123 37q80 41 80 90q0 16 -8 25q-31 45 -82 57q-43 -98 -143 -139q-45 -18 -88 -19q-23 0 -68 11z" />
<glyph unicode="&#xbc;" horiz-adv-x="710" d="M23 10v678q0 133 87 215t220 82q143 0 227 -72q92 -78 94 -217q2 -133 -78.5 -200.5t-216.5 -59.5q-47 2 -100 25q-59 25 -82 57v121q31 -39 90.5 -67.5t110.5 -28.5q70 0 118 46t48 116q0 76 -60.5 128t-138.5 52q-86 0 -148.5 -56.5t-62.5 -142.5v-676h-108z" />
<glyph unicode="&#xbd;" horiz-adv-x="681" d="M27 256q0 37 6 78h100q-4 -27 -4 -51q0 -186 207 -181q164 6 166 111q2 55 -51 86q-23 14 -144 53q-190 63 -239 174q-35 80 -35 170q0 68 22 123q76 182 320 166q100 -6 170.5 -72.5t70.5 -164.5q0 -104 -75 -164q-68 -53 -176 -54q-119 0 -203 66q20 -94 198 -154 q135 -45 144 -49q109 -53 114 -145q16 -248 -288 -248q-303 0 -303 256zM162 778q-12 -68 51 -110q55 -39 125 -39q158 0 170 112q6 59 -42 104.5t-108 45.5q-78 0 -112 -12q-70 -25 -84 -101z" />
<glyph unicode="&#xbe;" horiz-adv-x="1204" d="M-90 1233v115q61 51 133 45q51 -4 98 -52q47 55 142 52q160 -8 172 -174q6 -84 -53.5 -138.5t-143.5 -48.5q-55 4 -78 19v-166q-55 -49 -110 -142v480q0 63 -66 63q-61 0 -94 -53zM20 520q0 141 68 252q2 4 88 113q29 37 178 125l174 102q152 88 207 244h129 q-45 -193 -250 -314q291 -35 420 -227q86 -129 88 -291q2 -240 -152.5 -382t-396.5 -142q-240 0 -393 139q-160 143 -160 381zM139 520q-2 -184 129 -299q125 -111 312 -112q184 -2 302.5 112.5t121.5 298.5q2 184 -121.5 299t-309.5 117t-309 -114.5t-125 -301.5zM180 1143 q37 -27 80 -21q78 12 78 88q0 37 -22.5 61.5t-59.5 22.5q-27 -2 -51.5 -19.5t-24.5 -41.5v-90z" />
<glyph unicode="&#xbf;" horiz-adv-x="1525" d="M23 506q0 197 75 340q96 180 273 178q98 -2 125 -53q43 4 59 4q125 -2 186 -92q45 -68 50 -254h-154q-264 0 -264 -221q0 -158 145 -238q117 -66 287 -66q238 0 377 128t139 364q0 238 -123 405q-76 -63 -217 -63q-131 0 -213 55q-96 63 -96 189q0 29 6 57q-98 10 -123 8 v103q178 -4 270 -19q289 -45 451 -238.5t168 -488.5q2 -125 -43 -246q-47 -127 -135 -208q-162 -152 -459 -152q-233 0 -381 92q-176 109 -176 330q0 137 104 225q98 84 240 84h74q0 143 -119 141q-137 -4 -133 -149h-115q-6 126 72 194q-10 14 -54 -4q-63 -27 -94 -75 q-78 -125 -90 -318q-16 -281 150 -508h-133q-23 35 -62 119q-68 197 -67 377zM793 1182q0 -96 108 -129q41 -12 80 -13q90 0 137 45q-110 99 -319 140q-6 -23 -6 -43z" />
<glyph unicode="&#xc0;" horiz-adv-x="1372" d="M20 442q-12 260 168 408q117 94 318 88v-107q-102 0 -137 -8q-61 -14 -113 -61q-117 -109 -117 -307q0 -133 60 -230q70 -115 194 -114q94 0 150 71q49 63 49 162v129h123v-125q0 -102 47 -166q53 -74 151 -73q133 0 205 159q55 123 51 281q-6 252 -135 452 q-68 -63 -221 -63q-133 0 -213 55q-94 66 -94 193q0 27 6 53q-23 2 -121 10v101q279 -6 449 -72q221 -86 338 -293q104 -184 112 -422q8 -223 -71 -375q-98 -188 -308 -188q-104 0 -157 27q-63 33 -101 123q-72 -150 -260 -152q-184 -2 -280 135q-82 115 -93 309zM137 1268 q-10 123 90 198q82 63 215 84q106 16 217 17q514 0 521 -271q2 -113 -101 -178q-20 18 -43 41l-41 33q66 39 66 92q0 174 -402 178q-133 2 -235 -24q-162 -41 -164 -140q-2 -131 191 -137q47 -2 59 4q0 -43 22 -94q-20 -6 -96 -10q-119 -6 -198 41q-90 53 -101 166z M629 1180q0 -70 61 -107q51 -31 125 -31q86 0 139 39q-53 49 -141 90q-51 23 -178 54q-6 -23 -6 -45z" />
<glyph unicode="&#xc1;" horiz-adv-x="1372" d="M20 442q-14 260 168 408q117 94 318 88v-107q-102 0 -137 -8q-61 -14 -113 -61q-117 -109 -117 -307q0 -133 60 -230q70 -115 194 -114q94 0 150 71q49 63 49 162v129h123v-125q0 -102 47 -166q53 -74 151 -73q133 0 205 159q55 123 51 281q-6 252 -135 452 q-68 -63 -219 -63q-309 0 -309 248q0 27 6 53q-23 2 -121 10v101q244 -4 389 -50q0 115 58 148q-68 14 -174 14q-397 0 -400 -164q-2 -131 191 -137q4 0 55 2q2 -51 25 -92q-51 -8 -95 -10q-119 -6 -198 41q-90 53 -101 166q-10 123 90 198q82 63 215 84q106 16 218 17 q526 0 520 -271q-2 -100 -125 -153q217 -211 231 -580q8 -223 -71 -375q-98 -188 -308 -188q-104 0 -157 27q-63 33 -101 123q-72 -150 -260 -152q-182 -2 -278 135q-84 117 -95 309zM629 1180q0 -70 61 -107q51 -31 125 -31q86 0 139 39q-53 49 -141 90q-51 23 -178 54 q-6 -23 -6 -45zM897 1319q0 -35 23.5 -58.5t58.5 -23.5t59.5 23.5t24.5 58.5t-24.5 58.5t-59.5 23.5t-58.5 -23.5t-23.5 -58.5z" />
<glyph unicode="&#xc2;" horiz-adv-x="1337" d="M20 428q0 121 62.5 211t177.5 121q39 10 107 10h120q-8 162 -120 164q-141 2 -148 -111q-2 -27 10 -49h-118q-10 27 -11 64q0 88 72 145q24 21 47 29q-78 37 -78 129q0 213 439 215q78 0 194 -15q225 -29 225 -174q0 -55 -38 -104q59 53 112 125q82 111 86 174h119 q-14 -102 -119 -236q-45 -57 -110 -102q20 -8 57 -29q70 -59 94 -161q8 -35 4 -97q-4 -61 -18 -94q16 -18 26 -41q41 -86 43 -160q2 -76 -20 -149q-96 -311 -600 -311q-496 0 -594 309q-20 66 -21 137zM141 416q23 -326 496 -326q281 0 412 127q86 84 86 203q0 45 -13 92 q-59 -70 -147 -70q-94 0 -137 72q-37 61 -31 160h-168v53q0 92 14 137q47 150 185 168q-35 -6 -66 -6q-74 0 -131 35q-68 39 -76 106q-6 43 17 84q-314 1 -314 -118q0 -72 103 -93q184 -4 223 -178q12 -55 12 -135v-53h-182q-104 0 -143 -15q-82 -31 -123 -137 q-20 -51 -17 -106zM684 1190q0 -37 41 -57q35 -18 74 -19q82 0 84 53q4 78 -117 78q-82 0 -82 -55zM758 770h57q4 25 19 78q12 27 34 84q-102 -23 -110 -162zM911 674q-10 -119 54 -133q57 -14 102 71q-62 62 -156 62zM922 772q111 0 174 -49q10 170 -113 205 q-35 -53 -61 -156z" />
<glyph unicode="&#xc3;" horiz-adv-x="1024" d="M25 2h897l-451 897z" />
<glyph unicode="&#xc4;" horiz-adv-x="1390" d="M20 461q-16 274 177 454q131 123 323 123q141 0 234 -73q100 -80 98 -220q-2 -129 -96 -231q-45 -49 -70 -82q-61 -82 -61 -203q31 31 80 29q10 0 106 -71.5t121 -67.5q127 16 198 203q57 150 58 307q0 252 -137 389q-115 115 -424 119q-322 4 -547 -105v113 q156 37 156 76q0 6 -9 12q-43 27 -43 76q0 154 459 153q582 0 582 -250q0 -94 -70 -133q145 -158 154 -426q6 -229 -84 -422q-108 -231 -307 -231q-74 0 -119 31q-18 12 -58 61q-27 33 -53 37q-51 6 -51 -51q0 -43 14 -70h-110q-31 66 -31 135q-2 -61 -66 -104 q-55 -39 -120 -39q-154 0 -234 164q-59 119 -70 297zM141 483q0 -92 23 -149q59 78 164 76q152 -4 182 -152q2 115 49 197l109 135q61 78 63 151q2 96 -60.5 143.5t-160.5 45.5q-211 -4 -324 -221q-45 -86 -45 -226zM221 203q0 -39 26.5 -65.5t65.5 -26.5t67 25.5t28 64.5 t-28 66.5t-67 27.5t-65.5 -26.5t-26.5 -65.5zM317 1296q-4 -14 29 -41q6 -6 6 -14t-8 -20q123 20 285 20q152 0 235 -12q113 -16 197 -68q51 14 41 68q-27 127 -449 127q-326 0 -336 -60z" />
<glyph unicode="&#xc5;" horiz-adv-x="1390" d="M20 461q-16 274 177 454q131 123 323 123q141 0 234 -73q100 -80 98 -220q-2 -129 -96 -231q-45 -49 -70 -82q-61 -82 -61 -203q31 31 80 29q8 0 105 -71.5t122 -67.5q131 16 201 205q53 145 55 305q2 227 -139 368q-90 90 -250 90h-539q-178 0 -178 150q0 225 557 225 q588 0 588 -250q0 -109 -72 -149q145 -158 154 -424q6 -221 -84 -410q-111 -229 -307 -229q-74 0 -119 31q-18 12 -58 61q-27 33 -53 37q-51 6 -51 -51q0 -43 14 -70h-110q-31 65 -31 135q-2 -61 -66 -104q-55 -39 -120 -39q-154 0 -234 164q-59 119 -70 297zM141 483 q0 -92 23 -149q59 78 164 76q152 -4 182 -152q2 115 49 197l109 135q61 78 63 151q2 96 -60.5 143.5t-160.5 45.5q-211 -4 -324 -221q-45 -86 -45 -226zM209 1243q4 -49 104 -49h500q164 0 242 -57q59 33 49 92q-23 127 -455 127q-295 0 -385 -47q-59 -31 -55 -66zM221 203 q0 -39 26.5 -65.5t65.5 -26.5t67 25.5t28 64.5t-28 66.5t-67 27.5t-65.5 -26.5t-26.5 -65.5z" />
<glyph unicode="&#xc6;" horiz-adv-x="1353" d="M20 463q6 -352 285 -510q137 -78 334 -78q254 0 473 141v-282q-98 82 -274 82q-39 0 -119 -9q-61 -6 -303 -96q-61 -23 -121 -22q-102 0 -102 65q0 68 79 68q12 0 27 -4v90q-35 6 -63 6q-119 0 -158 -100q-12 -31 -12 -64q0 -170 208 -170q96 0 258 55q205 70 291 70 q201 0 295 -100h113v547h-113q-133 -94 -209 -125q-104 -43 -239 -43q-301 0 -439 188q-86 117 -86 274q0 225 129 342q162 147 396 148q348 0 446 -231q35 -84 33 -148q-6 -133 -87 -219t-212 -88q-137 -4 -223 67q-57 47 -58 140q0 104 74 159q68 51 174 52h66v100h-471 v-100h137q-104 -57 -107 -199q-4 -168 119 -254q104 -74 281 -74q193 0 310.5 116t119.5 308q2 229 -191 361q-168 115 -407 114q-276 0 -459 -147q-199 -160 -195 -430z" />
<glyph unicode="&#xc7;" horiz-adv-x="1390" d="M20 461q-16 274 177 454q131 123 323 123q141 0 234 -73q100 -80 98 -220q-2 -129 -96 -231q-45 -49 -70 -82q-61 -82 -61 -203q31 31 80 29q8 0 105 -71.5t122 -67.5q131 16 201 205q53 145 55 305q2 227 -139 368q-90 90 -250 90h-539q-178 0 -178 150q0 225 557 225 q238 0 334 -18q225 -43 235 -178q8 -121 -104 -158q197 -158 205 -469q6 -223 -84 -410q-111 -229 -307 -229q-74 0 -119 31q-18 12 -58 61q-27 33 -53 37q-51 6 -51 -51q0 -43 14 -70h-110q-31 65 -31 135q-2 -61 -66 -104q-55 -39 -120 -39q-154 0 -234 164 q-59 119 -70 297zM141 483q0 -92 23 -149q59 78 164 76q152 -4 182 -152q2 115 49 197l109 135q61 78 63 151q2 96 -60.5 143.5t-160.5 45.5q-211 -4 -324 -221q-45 -86 -45 -226zM209 1243q4 -49 104 -49h488q-25 23 -29 76q-4 55 29 82q-37 4 -152 4q-295 0 -385 -47 q-59 -31 -55 -66zM221 203q0 -39 26.5 -65.5t65.5 -26.5t67 25.5t28 64.5t-28 66.5t-67 27.5t-65.5 -26.5t-26.5 -65.5zM895 1272q-6 -39 27.5 -64.5t74.5 -25.5q68 0 80 51q10 41 -22.5 67.5t-75.5 26.5q-74 0 -84 -55z" />
<glyph unicode="&#xc8;" horiz-adv-x="1126" d="M20 387q0 213 222 342q74 43 256 43h329q-61 166 -276 166q-229 0 -291 -143q-4 -10 -8 -29h-123q0 76 80 156q-150 61 -150 198q0 164 215 230q121 37 273 36q469 0 469 -294q0 -135 -129 -189q49 -66 71 -180q4 -20 7 -51h-473q-82 0 -117 -6q-57 -10 -115 -54 q-123 -92 -121 -225t113 -211q76 -53 143 -67q49 -10 158 -9q350 6 367 117h124q-6 -43 -36 -78q-96 -109 -306 -137q-8 0 -71 -6q-123 -27 -123 -100q0 -117 213 -111q109 4 168 31q31 14 94 67q27 23 35 68q8 41 0 61h121q2 -20 2 -39q0 -137 -133 -221q-115 -72 -260 -71 q-117 0 -170 12q-205 47 -201 184q2 94 74 121q-125 16 -179 37q-70 27 -147 96q-104 94 -105 256zM178 1126q-4 -92 117 -133q92 47 248 47q166 0 264 -61q92 29 94 119q4 184 -371 184q-109 0 -208 -31q-139 -43 -144 -125z" />
<glyph unicode="&#xc9;" horiz-adv-x="1349" d="M-31 678v98h621q-8 160 -178 164q-72 2 -121 -38t-60 -109h-120q8 117 98 186q84 66 203 65q305 0 309 -366h-182q-84 0 -158 -23q-33 -10 -90 -45q-117 -72 -121 -178q-8 -178 158 -260q123 -61 319 -61q229 0 365 147q129 140 135 373q6 242 -146 377 q-141 127 -387 129q-311 4 -514 -105v113q35 6 82 26q59 27 60 50q0 6 -6 10q-43 27 -43 76q0 94 186 133q109 23 252 22q567 0 567 -250q0 -100 -80 -149q150 -162 150 -412q0 -295 -156 -469q-162 -182 -455 -180q-612 6 -612 410q0 86 50 164.5t130 101.5h-256zM326 1294 q-4 -14 28 -41q6 -6 6 -14t-8 -20q127 23 264 22q252 0 408 -96q51 10 51 61q0 150 -434 150q-305 0 -315 -62z" />
<glyph unicode="&#xca;" horiz-adv-x="1339" d="M20 424q0 121 63.5 213t178.5 123q39 10 107 10h135q-8 162 -135 164q-141 2 -148 -111q-2 -27 10 -49h-118q-2 12 -9 33q0 233 263 233q88 0 156.5 -47t86.5 -131q12 -55 13 -135v-53h-205q-205 0 -260 -158q-16 -47 -17 -100q0 -115 86 -199q131 -127 412 -127t412 127 q86 84 86 199q0 178 -131 235q-51 23 -146 23h-205v624q0 63 -65 64q-61 0 -94 -53v114q61 51 133 45q51 -4 98 -51q47 55 141 51q160 -8 172 -176q8 -100 -90 -153q-49 -27 -106 -23q-55 4 -78 19v-136q59 45 149 41q219 193 228 351h121q-6 -129 -123 -275 q-35 -43 -103 -94q135 -47 136 -215l-9 -33h-118q12 23 10 49q-6 113 -148 111q-127 -2 -135 -164h135q213 0 308 -170q41 -74 40 -176q0 -262 -243 -373q-154 -70 -377 -69q-219 0 -373 69q-244 111 -244 373zM766 1227q37 -27 80 -21q78 12 78 80q0 37 -22.5 61.5 t-59.5 22.5q-27 -2 -51.5 -19.5t-24.5 -41.5v-82z" />
<glyph unicode="&#xcb;" horiz-adv-x="2387" d="M10 326v123q102 125 183 204l161 162q23 23 23 55q0 70 -92 62q-49 -4 -80 -42t-31 -89q0 -29 10 -53h-118q-8 33 -9 63q0 100 54.5 161.5t152.5 67.5q197 14 228 -137q180 129 426 137q66 2 153 -14q111 -20 135 -59q57 75 209 75q88 0 156.5 -47t87.5 -131 q12 -55 12 -135v-53h-205q-205 0 -260 -158q-16 -47 -16 -100q0 -115 86 -199q131 -127 412 -127t411 127q86 84 86 199t-67 190q-29 -47 -156 -100q37 -43 37 -105q0 -90 -117 -133q-82 -31 -192 -30q-311 0 -312 184q0 102 103 137q55 18 186 19q182 0 234 14 q94 27 118 72q-37 10 -110 10h-205v53q0 313 256 313q262 0 262 -233q0 -70 -41 -107q123 -92 123 -276q0 -262 -242 -373q-154 -70 -376 -69q-219 0 -373 69q-244 111 -244 373q0 121 63.5 213t178.5 123q39 10 106 10h135q-8 160 -135 164q-88 2 -125 -49 q-20 -39 -20 -111h-119q-2 57 8 96q-86 61 -237 64q-182 2 -306 -76q397 -55 431 -459q12 -152 -54 -268q-74 -133 -221 -133q-195 2 -225 106q-35 -106 -238 -106q-92 0 -156.5 60.5t-68.5 152.5q-2 25 11.5 65.5t13.5 59.5q0 31 -35 31q-23 0 -66 -43zM154 455 q78 -8 77 -103q0 -4 -16 -67q-8 -31 -8 -54q0 -121 129 -120q88 0 129 65q37 57 31 148h112q-2 -100 27 -154q39 -72 131 -64q82 8 127 93q39 72 39 161q0 145 -85 257t-224 145q-18 4 -50 4q-104 0 -165 -55q-107 -96 -254 -256zM1493 418q0 -82 197 -82q195 0 194 78 q0 49 -61 63q-35 8 -135 8q-195 0 -195 -67zM1823 772h135q61 0 106 -10q11 0 17 -6q25 31 24 69q-2 113 -147 111q-127 -2 -135 -164z" />
<glyph unicode="&#xcc;" horiz-adv-x="1806" />
<glyph unicode="&#xcd;" horiz-adv-x="1204" d="M20 520q0 195 134 340q-129 45 -129 195q-1 133 114 229q78 66 140 84q41 12 131 12q88 0 145 -41q66 -45 66 -129q0 -16 -5 -32q18 18 56 61q41 59 63 117h129q-45 -193 -250 -314q291 -35 420 -227q86 -129 88 -291q2 -240 -152.5 -382t-396.5 -142q-240 0 -393 139 q-160 143 -160 381zM139 520q-2 -184 129 -299q125 -111 312 -112q184 -2 302.5 112.5t121.5 298.5q2 184 -121.5 299t-309.5 117t-309 -114.5t-125 -301.5zM145 1057q1 -96 95 -121q53 37 166 100q-174 8 -175 144q0 16 5 30q-90 -68 -91 -153zM348 1202q0 -35 23.5 -58.5 t58.5 -23.5t59.5 23.5t24.5 58.5t-24.5 58.5t-59.5 23.5t-58.5 -23.5t-23.5 -58.5z" />
<glyph unicode="&#xce;" horiz-adv-x="1376" d="M10 616v99h547q-6 27 -41 86q-43 51 -121 51q-133 0 -176 -127h-113q2 18 15 61q43 98 137 144q51 25 145 24q141 0 213 -98q53 -72 66 -240h-303q-96 0 -164 -64.5t-74 -160.5q-10 -174 135 -256q53 -31 130 -24q86 6 142 53t56 129v153h115v-151q0 -82 74 -137 q68 -53 151 -47q143 10 205 241q35 129 18 277q-20 184 -131 375q-86 -68 -252 -64q-156 4 -227 98q-49 66 -49 138q0 27 6 63q-31 6 -123 6v105q125 4 295 -27q530 -96 598 -674q8 -70 8 -125q0 -193 -78 -340q-98 -186 -317 -184q-80 0 -121 18q-88 39 -114 111 q-53 -137 -289 -129q-166 6 -264.5 112.5t-88.5 272.5q6 106 70 188q25 33 49 43h-129zM137 1268q-10 123 90 198q82 63 215 84q106 16 217 17q514 0 521 -271q2 -113 -101 -178q-20 18 -43 41l-41 33q66 39 66 92q0 174 -402 178q-133 2 -235 -24q-162 -41 -164 -140 q-2 -131 191 -137q47 -2 59 4q0 -43 22 -94q-20 -6 -96 -10q-119 -6 -198 41q-90 53 -101 166zM629 1182q0 -139 188 -140q100 0 141 45q-66 53 -145 89q-43 18 -178 49q-6 -23 -6 -43z" />
<glyph unicode="&#xcf;" horiz-adv-x="2541" />
<glyph unicode="&#xd0;" horiz-adv-x="1376" d="M10 616v99h547q-6 27 -41 86q-43 51 -121 51q-133 0 -176 -127h-113q2 18 15 61q43 98 137 144q51 25 145 24q141 0 213 -98q53 -72 66 -240h-303q-96 0 -164 -64.5t-74 -160.5q-10 -174 135 -256q53 -31 130 -24q86 6 142 53t56 129v153h115v-151q0 -82 74 -137 q68 -53 151 -47q143 10 205 241q35 129 18 277q-20 184 -131 375q-86 -68 -252 -64q-156 4 -227 98q-49 66 -49 138q0 27 6 63q-31 6 -123 6v105q178 6 389 -47q-2 18 -2 34q0 78 58 111q-68 14 -174 14q-397 0 -400 -164q-2 -131 191 -137q4 0 55 2q2 -51 24 -92 q-51 -8 -94 -10q-119 -6 -198 41q-90 53 -101 166q-10 123 90 198q82 63 215 84q106 16 218 17q526 0 520 -271q-2 -111 -119 -149q111 -109 172 -289q57 -166 57 -334q0 -193 -78 -340q-98 -186 -317 -184q-80 0 -121 18q-88 39 -114 111q-53 -137 -289 -129 q-166 6 -264.5 112.5t-88.5 272.5q6 106 70 188q25 33 49 43h-129zM629 1182q0 -139 188 -140q100 0 141 45q-66 53 -145 89q-43 18 -178 49q-6 -23 -6 -43zM895 1319q0 -35 23.5 -58.5t58.5 -23.5t59.5 23.5t24.5 58.5t-24.5 58.5t-59.5 23.5t-58.5 -23.5t-23.5 -58.5z" />
<glyph unicode="&#xd1;" horiz-adv-x="1349" d="M-31 678v98h621q-8 160 -178 164q-72 2 -121 -38t-60 -109h-120q8 117 98 186q84 66 203 65q305 0 309 -366h-182q-84 0 -158 -23q-33 -10 -90 -45q-117 -72 -121 -178q-8 -178 158 -260q123 -61 319 -61q233 0 363 145q123 137 133 375q10 225 -135 366q-92 90 -250 90 h-477q-178 0 -179 150q0 225 527 225q205 0 319 -26q240 -55 240 -224q0 -82 -74 -149q150 -162 150 -412q0 -295 -154 -469q-160 -182 -453 -180q-612 7 -612 410q0 86 50 164.5t130 101.5h-256zM229 1243q4 -49 105 -49h438q164 0 242 -57q61 31 49 94q-23 125 -424 125 q-420 0 -410 -113z" />
<glyph unicode="&#xd2;" horiz-adv-x="1314" d="M29 485q0 -238 184 -368q162 -117 408 -117q281 0 446.5 155.5t165.5 434.5q0 354 -213 557q117 39 119 149q6 270 -521 271q-207 0 -339 -51q-197 -76 -183 -248q10 -113 101 -166q80 -47 198 -41q43 2 94 10q-23 41 -24 92l-55 -2q-82 -2 -131 25q-61 35 -60 112 q4 164 399 164q106 0 175 -14q-57 -33 -58 -115q0 -16 2 -35q-160 54 -391 52v-103q74 0 127 -8q-10 -39 -10 -72q0 -121 112 -180q88 -47 220 -47q96 0 196 59q121 -186 121 -415q0 -215 -132 -345t-347 -130q-201 0 -332 90q-152 104 -151 297q0 209 153 295q76 43 203 34 v107q-166 8 -277 -60q-201 -123 -200 -387zM584 1180q0 22 6 45q217 -47 319 -144q-59 -41 -143 -41q-47 0 -88 15q-94 33 -94 125zM852 1319q0 -35 23.5 -58.5t58.5 -23.5t59.5 23.5t24.5 58.5t-24.5 58.5t-59.5 23.5t-58.5 -23.5t-23.5 -58.5z" />
<glyph unicode="&#xd3;" horiz-adv-x="1314" d="M29 485q0 -238 184 -368q162 -117 408 -117q281 0 446.5 155.5t165.5 434.5q0 395 -254 590q-227 174 -633 170v-103q74 0 127 -8q-10 -39 -10 -72q0 -121 112 -180q88 -47 220 -47q96 0 196 59q121 -186 121 -415q0 -215 -132 -345t-347 -130q-201 0 -332 90 q-152 104 -151 297q0 209 153 295q76 42 203 34v107q-166 8 -277 -60q-201 -123 -200 -387zM92 1268q-10 123 90 198q82 63 215 84q106 16 217 17q514 0 521 -271q2 -113 -101 -178q-20 18 -43 41l-41 33q66 39 66 92q0 174 -402 178q-133 2 -235 -24q-162 -41 -164 -140 q-2 -131 191 -137q47 -2 59 4q0 -43 22 -94q-20 -6 -96 -10q-119 -6 -198 41q-90 53 -101 166zM584 1180q0 22 6 45q217 -47 319 -144q-59 -41 -143 -41q-47 0 -88 15q-94 33 -94 125z" />
<glyph unicode="&#xd4;" horiz-adv-x="1341" d="M23 424q0 121 63.5 213t177.5 123q39 10 107 10h135q-8 162 -135 164q-141 2 -148 -111q-2 -27 10 -49h-118q-4 18 -6 37q-12 94 57 164q25 25 53 37q-78 37 -78 127q0 154 207 194q84 17 234 21q168 4 256 -15q166 -35 166 -151q0 -70 -64 -113q61 31 102 88l58 80 q47 66 49 107h119q-8 -88 -129 -240q-25 -33 -92 -84q76 0 120 -84q16 -31 4 -90q-20 -92 -139 -96q109 -37 168.5 -126t59.5 -206q0 -262 -244 -373q-154 -70 -377 -69q-219 0 -373 69q-244 111 -243 373zM143 416q0 -115 86 -199q131 -127 412 -127t412 127q86 84 86 199 q0 178 -131 235q-51 23 -146 23h-205v53q0 80 13 135q29 127 164 168q-31 -6 -60 -6q-70 0 -131 37q-70 41 -78 106q-6 41 17 84q-314 1 -314 -118q0 -72 103 -91q86 -2 154.5 -51t86.5 -129q12 -53 13 -135v-53h-205q-205 0 -260 -158q-16 -47 -17 -100zM684 1190 q0 -37 41 -57q35 -18 74 -19q82 0 84 53q4 78 -117 78q-82 0 -82 -55zM774 770h141q-41 16 -57 49q-29 55 -12 107q-39 -14 -60 -60q-12 -37 -12 -96zM948 887q0 -63 60 -64q63 0 63 62q0 61 -59 61q-64 0 -64 -59z" />
<glyph unicode="&#xd5;" horiz-adv-x="1685" d="M20 500q0 541 443 540h303v-102q-121 2 -186 -25q-45 -18 -111 -82q-117 -113 -117 -331q0 -168 90 -277q96 -117 263 -117q143 0 225 68q90 74 90 213q0 72 -33 121q-39 57 -106 57q-94 0 -95 -98q0 -14 2 -29h-112q-6 47 -6 101q0 164 59 270q129 231 412 231 q209 0 342 -168q127 -156 121 -368q-6 -252 -151.5 -383t-397.5 -123v102q203 0 315.5 107.5t112.5 308.5q0 164 -92 285q-100 133 -261 133q-133 0 -227 -81t-112 -212q78 35 127 35q109 -2 169 -101q53 -84 54 -198q0 -184 -131 -285q-115 -88 -308 -92q-221 -4 -348 147 q-121 141 -121 367q0 244 144 387l24 25q-76 4 -139 -54q-123 -113 -123 -352q0 -285 144 -500h-131q-131 180 -132 480z" />
<glyph unicode="&#xd6;" horiz-adv-x="1349" d="M-31 678v98h621q-8 160 -178 164q-72 2 -121 -38t-60 -109h-120q8 117 98 186q84 66 203 65q305 0 309 -366h-182q-84 0 -158 -23q-33 -10 -90 -45q-117 -72 -121 -178q-8 -178 158 -260q123 -61 319 -61q233 0 363 145q123 137 133 375q10 225 -135 366q-92 90 -250 90 h-477q-178 0 -179 150q0 225 527 225q225 0 319 -18q240 -47 240 -211q0 -113 -101 -146q176 -162 177 -436q0 -295 -154 -469q-160 -182 -453 -180q-612 7 -612 410q0 86 50 164.5t130 101.5h-256zM229 1243q4 -49 105 -49h459q-27 33 -27 76q0 53 29 82q-37 4 -156 4 q-420 0 -410 -113zM883 1264q-6 -39 27.5 -64.5t74.5 -25.5q68 0 80 51q10 41 -22.5 67.5t-75.5 26.5q-74 0 -84 -55z" />
<glyph unicode="&#xd7;" horiz-adv-x="2215" d="M20 500q0 -299 132 -480h131q-143 215 -144 500q0 240 123 352q63 57 139 54q-6 -6 -24 -25q-143 -152 -144 -387q0 -225 121 -367q127 -152 348 -147q322 6 412 246q18 -70 86 -131q141 -129 391 -127q193 2 252 20l-108 -174h125q86 90 182 78q63 -8 63 -74 q0 -27 -16 -57q-39 -72 -184 -72q-88 0 -136 33v-119q43 -23 160 -22q131 0 215 59q96 68 97 193q0 84 -48.5 133t-132.5 49q-37 0 -71 -10l118 188h-131q-43 -111 -346 -115q-418 -6 -422 289q-2 133 121 225q57 43 115 54q35 6 117 6h473q-2 14 -6 51q-45 317 -410 317 q-84 0 -115 -4q-92 -12 -153 -51q-90 55 -209 55q-283 0 -412 -231q-59 -106 -59 -270q0 -53 6 -101h112q-2 14 -2 29q0 98 95 98q68 0 106 -57q33 -49 33 -121q0 -139 -90 -213q-82 -68 -225 -68q-166 0 -263 117q-90 109 -90 277q0 219 117 331q66 63 111 82q66 27 186 25 v102h-303q-442 0 -443 -540zM791 641q18 131 112 212t227 81q43 0 132 -29q-63 -76 -64 -139h123q12 92 115 137q78 35 184 35q190 0 276 -166h-329q-238 0 -318 -80q-100 -74 -135 -170q-53 152 -196 154q-74 2 -127 -35z" />
<glyph unicode="&#xd8;" horiz-adv-x="2367" d="M20 524q8 270 117 418q72 96 180 96q51 0 101 -24q47 23 88 26q197 14 227 -137q178 137 426 137q178 0 311 -79q43 39 99 55q43 8 86 18q27 6 114 6q387 0 416 -368h-473q-82 0 -117 -6q-57 -10 -114 -54q-123 -92 -121 -225q4 -289 422 -289q305 0 348 115h131 l-119 -188q35 10 72 10q84 0 132 -49t48 -133q0 -125 -96 -193q-84 -59 -215 -59q-117 0 -160 22v119q47 -33 135 -33q145 0 185 72q16 31 16 57q0 66 -64 74q-96 12 -182 -78h-125l107 170q-86 -25 -271 -16q-248 10 -362 118q-66 61 -88 121q-59 -229 -258 -227 q-195 2 -225 106q-35 -106 -238 -106q-92 0 -156.5 60.5t-68.5 152.5q-2 25 11 65.5t13 59.5q0 31 -35 31q-23 0 -65 -43v123q102 125 182 204l162 162q23 23 22 55q0 70 -92 62q-49 -4 -79.5 -42t-30.5 -89q0 -29 10 -53h-119q-8 31 -8 61q0 61 29 117q-53 12 -107 -62 q-84 -115 -84 -362q0 -319 180 -500h-149q-76 96 -115 248q-37 139 -33 274zM395 455q78 -8 78 -103q0 -4 -16 -67q-8 -31 -8 -54q0 -121 129 -120q76 0 117.5 48t41.5 124v116h113v-118q0 -188 158 -175q82 8 127 93q39 72 39 161q0 145 -85 257t-225 145q-18 4 -49 4 q-104 0 -166 -55q-107 -96 -254 -256zM860 860q322 -43 408 -332q45 113 194 201q74 43 256 43h330q-47 94 -108.5 130t-167.5 36q-233 0 -291 -143q-4 -10 -8 -29h-123q0 47 43 108q-117 59 -228 62q-182 2 -305 -76z" />
<glyph unicode="&#xd9;" horiz-adv-x="1380" d="M20 391q0 123 78 197t203 80q27 2 72 -2q55 -2 73 -2q147 0 156 92q8 88 -55 137q-55 45 -146 45q-27 0 -51 -4q55 -31 56 -111q0 -158 -170 -157q-74 0 -120 46t-46 119q0 53 28 95q80 115 299 114q137 0 226 -67q96 -74 96 -207q0 -45 -12 -84q-43 -133 -271 -119 q-285 18 -295 -174q-8 -172 138 -254q53 -31 129 -24q86 6 142 53t56 129v153h115v-151q0 -82 74 -137q68 -53 151 -47q133 8 195 206q39 130 41 312q2 250 -138 389q-115 115 -417 119q-322 4 -547 -105v113q88 18 88 55q0 12 -14 21q-43 27 -43 75q0 166 532 166 q575 0 576 -250q0 -94 -70 -133q150 -162 154 -426t-70 -432q-100 -233 -334 -221q-41 2 -121 18q-88 37 -114 111q-35 -88 -158 -119q-51 -12 -131 -10q-164 6 -259.5 115.5t-95.5 275.5zM172 829q0 -66 70 -65q66 0 65 70q0 66 -69 65q-66 0 -66 -70zM244 1284 q-4 -14 28 -41q6 -6 7 -14q-1 -9 -9 -21q154 33 359 33q147 0 231 -12q113 -16 195 -68q51 14 41 68q-27 127 -443 127q-303 0 -389 -49q-18 -10 -20 -23z" />
<glyph unicode="&#xda;" horiz-adv-x="1296" d="M20 420q0 137 105 225q98 84 240 84h73q0 143 -119 141q-137 -4 -133 -149h-114q-8 119 62.5 187.5t191.5 66.5q125 -2 186 -92q45 -68 49 -254h-153q-264 0 -265 -221q0 -158 146 -238q117 -66 286 -66q238 0 377.5 128t139.5 364q0 238 -123 405q-76 -63 -217 -63 q-131 0 -213 55q-96 63 -97 189q0 29 7 57q-98 10 -123 8v103q240 -6 389 -43q-6 39 9 82t46 59q-68 14 -174 14q-397 0 -399 -164q-2 -131 190 -137q4 0 55 2q2 -51 25 -92q-51 -8 -94 -10q-119 -6 -199 41q-90 53 -100 166q-10 123 90 198q82 63 215 84q106 16 217 17 q526 0 520 -271q-2 -106 -123 -151q33 -25 70 -74q145 -197 151 -467q2 -125 -43 -246q-47 -127 -135 -208q-162 -152 -458 -152q-233 0 -381 92q-176 109 -177 330zM563 1182q0 -96 109 -129q41 -12 80 -13q90 0 137 45q-111 99 -320 140q-6 -23 -6 -43zM829 1319 q0 -35 24 -58.5t58 -23.5q35 0 59.5 23.5t24.5 58.5t-24.5 58.5t-59.5 23.5t-58.5 -23.5t-23.5 -58.5z" />
<glyph unicode="&#xdb;" horiz-adv-x="2064" />
<glyph unicode="&#xdc;" horiz-adv-x="1310" d="M23 532q0 209 126.5 346.5t333.5 145.5q90 4 158 -18v-111q-70 25 -145 20q-147 -8 -250 -113.5t-103 -252.5q0 -213 125 -333t340 -120q229 0 367 156q129 146 135 379q6 244 -135 377q-133 127 -381 129q-311 4 -514 -105v113q137 39 137 74q0 6 -8 12q-43 27 -43 76 q0 94 190 133q111 23 254 22q551 0 551 -250q0 -100 -80 -149q150 -162 150 -412q0 -297 -156 -475q-164 -188 -457 -188q-270 0 -428 135q-168 143 -167 409zM299 1294q-4 -14 29 -41q6 -6 6 -14t-8 -20q127 23 270 22q236 0 391 -96q51 10 51 61q0 150 -417 150 q-311 0 -322 -62z" />
<glyph unicode="&#xdd;" horiz-adv-x="1296" d="M20 420q0 137 105 225q98 84 240 84h73q0 143 -119 141q-137 -4 -133 -149h-114q-8 119 62.5 187.5t191.5 66.5q125 -2 186 -92q45 -68 49 -254h-153q-264 0 -265 -221q0 -158 146 -238q117 -66 286 -66q238 0 377.5 128t139.5 364q0 238 -123 405q-76 -63 -217 -63 q-131 0 -213 55q-96 63 -97 189q0 29 7 57q-98 10 -123 8v103q178 -4 270 -19q289 -45 450.5 -238.5t167.5 -488.5q2 -125 -43 -246q-47 -127 -135 -208q-162 -152 -458 -152q-233 0 -381 92q-176 109 -177 330zM72 1268q-10 123 90 198q82 63 215 84q106 16 217 17 q514 0 520 -271q2 -113 -100 -178q-20 18 -43 41l-41 33q66 39 65 92q0 174 -401 178q-133 2 -236 -24q-162 -41 -163 -140q-2 -131 190 -137q47 -2 59 4q0 -43 23 -94q-20 -6 -96 -10q-119 -6 -199 41q-90 53 -100 166zM563 1182q0 -96 109 -129q41 -12 80 -13q90 0 137 45 q-111 99 -320 140q-6 -23 -6 -43z" />
<glyph unicode="&#xde;" horiz-adv-x="1097" d="M20 387q0 -174 132 -278q115 -92 299 -111q41 -4 133 -4q88 0 137 10l-107 -170h125q86 90 183 78q63 -8 63 -74q0 -27 -16 -57q-39 -72 -185 -72q-88 0 -135 33v-119q43 -23 160 -22q131 0 215 59q96 68 96 193q0 84 -48 133t-132 49q-37 0 -72 -10l119 188h-131 q-41 -109 -303 -113q-164 -2 -274 60q-137 76 -140 227q-2 139 121 225q84 59 232 60h473q-2 14 -7 51q-45 317 -409 317q-115 0 -184 -20q-102 -31 -177 -121q-59 -72 -59 -133h123q2 10 8 29q63 143 291 143q106 0 167.5 -36t108.5 -130h-329q-276 0 -398 -158 q-80 -104 -80 -227z" />
<glyph unicode="&#xdf;" horiz-adv-x="1204" d="M20 520q0 195 134 340q-129 45 -129 195q0 135 110 227q105 90 242 90q141 0 201 -98q29 -47 28 -105q47 43 66 70q41 59 63 117h129q-45 -193 -250 -314q291 -35 420 -227q86 -129 88 -291q2 -240 -152.5 -382t-396.5 -142q-240 0 -393 139q-160 143 -160 381zM139 520 q-2 -184 129 -299q125 -111 312 -112q184 -2 302.5 112.5t121.5 298.5q2 184 -121.5 299t-309.5 117t-309 -114.5t-125 -301.5zM145 1057q1 -96 95 -121q14 10 206 127q57 35 58 74q0 119 -129 118q-80 0 -139 -45q-90 -68 -91 -153z" />
<glyph unicode="&#xe0;" horiz-adv-x="1310" d="M23 532q0 209 126.5 346.5t333.5 145.5q90 4 158 -18v-111q-70 25 -145 20q-147 -8 -250 -113.5t-103 -252.5q0 -209 127 -327t338 -118q244 0 377 144q127 135 137 383q10 225 -135 366q-92 90 -250 90h-477q-178 0 -178 150q0 225 526 225q225 0 320 -18 q240 -47 239 -211q0 -113 -100 -146q176 -162 176 -436q0 -297 -164 -475q-168 -184 -463 -182q-274 2 -428 131q-166 139 -165 407zM209 1243q4 -49 104 -49h459q-27 33 -27 76q0 53 29 82q-37 4 -156 4q-420 0 -409 -113zM862 1264q-6 -39 28 -64.5t75 -25.5q68 0 79 51 q10 41 -22.5 67.5t-75.5 26.5q-74 0 -84 -55z" />
<glyph unicode="&#xe1;" horiz-adv-x="1310" d="M23 532q0 209 126.5 346.5t333.5 145.5q90 4 158 -18v-111q-70 25 -145 20q-147 -8 -250 -113.5t-103 -252.5q0 -209 127 -327t338 -118q236 0 373 148q131 139 141 379q10 225 -135 366q-92 90 -250 90h-477q-178 0 -178 150q0 225 526 225q205 0 320 -26 q240 -55 239 -224q0 -82 -73 -149q150 -162 149 -412q0 -293 -166 -473q-170 -186 -461 -184q-274 2 -428 131q-166 139 -165 407zM209 1243q4 -49 104 -49h439q164 0 241 -57q61 31 49 94q-23 125 -424 125q-420 0 -409 -113z" />
<glyph unicode="&#xe2;" d="M-20 674v98h585q-6 74 -51 120t-117 46q-172 0 -172 -158h-119q0 55 17 92q45 100 137 144q51 25 146 24q279 0 284 -366h-313q-84 0 -164 -76q-61 -57 -63 -205q-4 -180 137 -258q55 -31 129 -24q86 6 142 53t56 129v153h115v-151q0 -82 74 -137q68 -53 151 -47 q141 10 205 243q33 117 29 279q-4 229 -139 364q-92 92 -191 119q-68 18 -235 21q-317 4 -543 -105v113q154 47 153 80q0 6 -6 10q-43 27 -43 76q0 152 455 151q569 0 569 -254q0 -86 -53 -145q145 -168 152 -414q6 -264 -66 -430q-98 -231 -334 -219q-63 4 -121 18 q-88 37 -114 111q-35 -88 -158 -119q-51 -12 -131 -10q-164 6 -259 115.5t-95 275.5q0 150 69 240q25 33 49 43h-167zM317 1298q-4 -14 29 -41q6 -6 6 -14t-8 -20q115 18 281 18q281 0 436 -96q33 43 24 84q-23 127 -436 127q-322 0 -332 -58z" />
<glyph unicode="&#xe3;" d="M-20 674v98h585q-6 74 -51 120t-117 46q-172 0 -172 -158h-119q0 55 17 92q45 100 137 144q51 25 146 24q279 0 284 -366h-313q-84 0 -164 -76q-61 -57 -63 -205q-4 -180 137 -258q55 -31 129 -24q86 6 142 53t56 129v153h115v-151q0 -82 74 -137q68 -53 151 -47 q141 10 205 243q33 117 29 279q-4 229 -139 364q-90 90 -250 90h-539q-178 0 -178 150q0 225 557 225q238 0 334 -18q225 -43 235 -178q8 -121 -104 -158q197 -158 205 -469q8 -269 -84 -457q-45 -94 -90 -133q-59 -51 -152 -51q-92 0 -197 20q-88 37 -114 111 q-35 -88 -158 -119q-51 -12 -131 -10q-164 6 -259 115.5t-95 275.5q0 150 69 240q25 33 49 43h-167zM209 1243q4 -49 104 -49h488q-25 23 -29 76q-4 55 29 82q-37 4 -152 4q-295 0 -385 -47q-59 -31 -55 -66zM895 1272q-6 -39 27.5 -64.5t74.5 -25.5q68 0 80 51 q10 41 -22.5 67.5t-75.5 26.5q-74 0 -84 -55z" />
<glyph unicode="&#xe4;" d="M-20 674v98h585q-6 74 -51 120t-117 46q-172 0 -172 -158h-119q0 55 17 92q45 100 137 144q51 25 146 24q279 0 284 -366h-313q-84 0 -164 -76q-61 -57 -63 -205q-4 -180 137 -258q55 -31 129 -24q86 6 142 53t56 129v153h115v-151q0 -82 74 -137q68 -53 151 -47 q141 10 205 243q33 117 29 279q-4 229 -139 364q-90 90 -250 90h-539q-178 0 -178 150q0 225 557 225q569 0 569 -254q0 -86 -53 -145q145 -158 154 -424q8 -264 -84 -457q-45 -94 -90 -133q-59 -51 -152 -51q-92 0 -197 20q-88 37 -114 111q-35 -88 -158 -119 q-51 -12 -131 -10q-164 6 -259 115.5t-95 275.5q0 150 69 240q25 33 49 43h-167zM209 1243q4 -49 104 -49h500q164 0 242 -57q39 51 30 92q-23 127 -436 127q-295 0 -385 -47q-59 -31 -55 -66z" />
<glyph unicode="&#xe5;" horiz-adv-x="1646" d="M23 506q0 195 75 340q94 182 273 178q78 -2 110 -29q68 45 183 45q279 0 284 -366h-313q-84 0 -164 -76q-61 -57 -63 -205q-4 -180 137 -258q55 -31 129 -24q86 6 142 53t56 129v153h115v-151q0 -82 74 -137q68 -53 151 -47q141 10 205 243q33 117 29 279 q-10 496 -565 504q-317 4 -543 -105v113q135 35 135 74q0 6 -8 12q-43 27 -43 76q0 156 475 155q569 0 569 -254q0 -86 -53 -145q145 -168 152 -414q6 -264 -66 -430q-98 -231 -334 -219q-63 4 -121 18q-88 37 -114 111q-35 -88 -158 -119q-51 -12 -131 -10 q-164 6 -259 115.5t-95 275.5q0 150 69 240q25 33 50 43h-154v98h571q-6 74 -51 120t-117 46q-172 0 -172 -158h-118q0 49 14 90q4 13 14 29q-12 12 -35 12q-82 2 -133 -75q-78 -119 -90 -318q-16 -281 150 -508h-133q-23 35 -62 119q-68 197 -67 377zM555 1294 q-4 -14 29 -41q6 -6 6 -14t-8 -20q131 23 301 22q281 0 436 -96q33 43 24 84q-23 127 -436 127q-342 0 -352 -62z" />
<glyph unicode="&#xe6;" horiz-adv-x="495" d="M156 74q0 33 24.5 57.5t57.5 24.5t57 -25t24 -57q0 -33 -24.5 -57.5t-56.5 -24.5q-33 0 -57.5 24.5t-24.5 57.5zM176 279h115v1112h-115v-1112z" />
<glyph unicode="&#xe7;" horiz-adv-x="1648" d="M23 506q0 195 75 340q94 182 273 178q76 -2 110 -29q31 18 37 21q53 25 146 24q279 0 284 -366h-313q-84 0 -164 -76q-61 -57 -63 -205q-4 -180 137 -258q55 -31 129 -24q86 6 142 53t56 129v153h115v-151q0 -82 74 -137q68 -53 151 -47q141 10 205 243q33 117 29 279 q-4 229 -139 364q-90 90 -250 90h-539q-178 0 -178 150q0 225 557 225q569 0 569 -254q0 -86 -53 -145q145 -158 154 -424q8 -258 -68 -426q-100 -225 -334 -213q-63 4 -121 18q-88 37 -114 111q-35 -88 -158 -119q-51 -12 -131 -10q-164 6 -259 115.5t-95 275.5 q0 150 69 240q25 33 50 43h-152v98h569q-6 74 -51 120t-117 46q-172 0 -172 -158h-118q0 49 16 94l14 29q-14 8 -37 8q-82 2 -133 -75q-78 -119 -90 -318q-16 -281 150 -508h-133q-23 35 -62 119q-68 197 -67 377zM467 1243q4 -49 104 -49h500q164 0 242 -57q39 51 30 92 q-23 127 -436 127q-295 0 -385 -47q-59 -31 -55 -66z" />
<glyph unicode="&#xe8;" horiz-adv-x="1370" d="M20 504q0 233 134 377q135 152 366 149q121 0 160 -26v-105q-51 23 -145 23q-188 0 -295 -121q-100 -113 -101 -305q0 -147 56 -252q68 -131 202 -131q88 0 142.5 67.5t54.5 155.5v180h119v-172q0 -84 49 -154q53 -78 135 -77q152 0 221 178q51 129 49 307 q-4 530 -555 539q-309 4 -532 -105v113q141 41 141 78q0 6 -8 10q-43 27 -43 76q0 154 459 153q559 0 559 -254q0 -86 -53 -145q149 -162 153 -445q4 -231 -65 -393q-94 -221 -293 -225q-215 -6 -277 150q-59 -154 -256 -150q-201 4 -297 160q-80 129 -80 344zM303 1296 q-4 -14 29 -41q6 -6 6 -14t-8 -20q145 20 284 20q270 0 426 -96q33 43 25 84q-23 127 -426 127q-326 0 -336 -60z" />
<glyph unicode="&#xe9;" horiz-adv-x="1644" d="M23 506q0 195 75 340q94 182 273 178q74 -2 108 -29q14 8 35 21q53 25 145 24q279 0 285 -366h-313q-84 0 -164 -76q-61 -57 -64 -205q-4 -180 138 -258q55 -31 129 -24q86 6 142 53t56 129v153h115v-151q0 -82 74 -137q68 -53 151 -47q141 10 205 243q33 117 29 279 q-4 229 -139 364q-90 90 -250 90h-539q-178 0 -178 150q0 225 557 225q238 0 334 -18q225 -43 235 -178q8 -121 -104 -158q197 -158 205 -469q8 -258 -68 -426q-100 -225 -334 -213q-63 4 -121 18q-88 37 -114 111q-35 -88 -158 -119q-51 -12 -131 -10q-164 6 -259 115.5 t-95 275.5q0 150 69 240q25 33 49 43h-153v98h571q-6 74 -51 120t-117 46q-172 0 -172 -158h-119q0 78 33 127q-6 4 -35 4q-82 2 -133 -75q-78 -119 -90 -318q-16 -281 150 -508h-133q-23 35 -62 119q-68 197 -67 377zM463 1243q4 -49 104 -49h488q-25 23 -29 76 q-4 55 29 82q-37 4 -152 4q-295 0 -385 -47q-59 -31 -55 -66zM1149 1272q-6 -39 27.5 -64.5t74.5 -25.5q68 0 80 51q10 41 -22.5 67.5t-75.5 26.5q-74 0 -84 -55z" />
<glyph unicode="&#xea;" horiz-adv-x="1370" d="M20 504q0 233 134 377q135 152 366 149q121 0 160 -26v-105q-51 23 -145 23q-188 0 -295 -121q-100 -113 -101 -305q0 -147 56 -252q68 -131 202 -131q88 0 142.5 67.5t54.5 155.5v180h119v-172q0 -84 49 -154q53 -78 135 -77q152 0 223 188q53 141 47 332 q-8 233 -139 364q-90 90 -250 90h-518q-178 0 -178 150q0 225 545 225q561 0 561 -254q0 -86 -53 -145q154 -166 153 -424q0 -244 -63 -406q-90 -229 -295 -233q-215 -6 -277 150q-59 -154 -256 -150q-201 4 -297 160q-80 129 -80 344zM209 1243q4 -49 104 -49h480 q164 0 241 -57q39 51 31 92q-23 127 -428 127q-283 0 -373 -47q-59 -31 -55 -66z" />
<glyph unicode="&#xeb;" horiz-adv-x="1372" d="M20 504q0 233 134 377q135 152 366 149q121 0 160 -26v-105q-51 23 -145 23q-188 0 -295 -121q-100 -113 -101 -305q0 -147 56 -252q68 -131 202 -131q88 0 142.5 67.5t54.5 155.5v180h119v-172q0 -84 49 -154q53 -78 135 -77q152 0 223 186q53 142 49 332 q-6 231 -141 366q-90 90 -250 90h-518q-178 0 -178 150q0 225 549 225q248 0 364 -28q193 -47 201 -168q8 -117 -113 -158q199 -160 207 -469q6 -238 -69 -412q-96 -221 -291 -227q-215 -6 -277 150q-59 -154 -256 -150q-201 4 -297 160q-80 129 -80 344zM209 1243 q4 -49 104 -49h467q-25 23 -28 76q-4 55 28 82q-37 4 -139 4q-287 0 -377 -47q-59 -31 -55 -66zM874 1272q-6 -39 28 -64.5t75 -25.5q68 0 80 51q10 41 -23 67.5t-76 26.5q-74 0 -84 -55z" />
<glyph unicode="&#xec;" d="M23 557q27 254 215 393q119 88 247 88q141 0 207 -32q186 -92 187 -285q0 -84 -52 -143q-20 -23 -65 -46q-53 -27 -70 -38q-57 -47 -57 -162q0 -94 57.5 -156.5t149.5 -62.5q174 0 270 180q80 150 76 336q-4 233 -139 368q-90 90 -250 90h-539q-178 0 -178 150 q0 225 557 225q569 0 569 -254q0 -86 -53 -145q147 -160 154 -424q4 -198 -66 -352q-92 -203 -258 -264q-53 -20 -137 -23q-117 -4 -199 51q-88 57 -119 166q0 -45 -4 -61q-41 -156 -190 -156q-227 0 -303 354q-20 98 -10 203zM143 557q-12 -143 27 -231q63 88 180 84 q76 -4 125 -64q37 -37 47 -96q-16 88 0 172q25 127 150 184q43 20 57 33q29 27 29 74q0 125 -107 184q-70 39 -162 31q-152 -12 -242.5 -114.5t-103.5 -256.5zM209 1243q4 -49 104 -49h500q164 0 242 -57q39 51 30 92q-23 127 -436 127q-295 0 -385 -47q-59 -31 -55 -66z M229 205q-2 -41 25 -67.5t68 -28.5q39 -2 65.5 24.5t28.5 67.5q2 39 -24.5 65.5t-65.5 28.5t-67 -24.5t-30 -65.5z" />
<glyph unicode="&#xed;" d="M23 557q27 254 215 393q119 88 247 88q141 0 207 -32q186 -92 187 -285q0 -84 -52 -143q-20 -23 -65 -46q-53 -27 -70 -38q-57 -47 -57 -162q0 -94 57.5 -156.5t149.5 -62.5t176 69q78 63 117 154q57 131 53 293q-10 500 -565 508q-317 4 -543 -105v113q135 35 135 74 q0 6 -8 12q-43 27 -43 76q0 156 475 155q569 0 569 -254q0 -86 -53 -145q145 -156 152 -424q6 -203 -64 -352q-94 -205 -258 -264q-55 -20 -137 -23q-117 -4 -199 51q-88 57 -119 166q0 -45 -4 -61q-41 -156 -190 -156q-227 0 -303 354q-20 98 -10 203zM143 557 q-12 -143 27 -231q63 88 180 84q76 -4 125 -64q37 -37 47 -96q-16 88 0 172q25 127 150 184q43 20 57 33q29 27 29 74q0 125 -107 184q-70 39 -162 31q-152 -12 -242.5 -114.5t-103.5 -256.5zM229 205q-2 -41 25 -67.5t68 -28.5q39 -2 65.5 24.5t28.5 67.5q2 39 -24.5 65.5 t-65.5 28.5t-67 -24.5t-30 -65.5zM297 1294q-4 -14 29 -41q6 -6 6 -14t-8 -20q133 23 301 22q281 0 436 -96q33 43 24 84q-23 127 -436 127q-342 0 -352 -62z" />
<glyph unicode="&#xee;" d="M23 557q27 254 215 393q119 88 247 88q141 0 207 -32q186 -92 187 -285q0 -84 -52 -143q-20 -23 -65 -46q-53 -27 -70 -38q-57 -47 -57 -162q0 -94 57.5 -156.5t149.5 -62.5q174 0 270 180q80 150 76 336q-4 233 -139 368q-90 90 -250 90h-539q-178 0 -178 150 q0 225 557 225q238 0 334 -18q225 -43 235 -178q8 -121 -104 -158q195 -158 205 -469q6 -196 -66 -352q-94 -203 -258 -264q-53 -20 -137 -23q-117 -4 -199 51q-88 57 -119 166q0 -45 -4 -61q-41 -156 -190 -156q-227 0 -303 354q-20 98 -10 203zM143 557q-12 -143 27 -231 q63 88 180 84q76 -4 125 -64q37 -37 47 -96q-16 88 0 172q25 127 150 184q43 20 57 33q29 27 29 74q0 125 -107 184q-70 39 -162 31q-152 -12 -242.5 -114.5t-103.5 -256.5zM209 1243q4 -49 104 -49h488q-25 23 -29 76q-4 55 29 82q-37 4 -152 4q-295 0 -385 -47 q-59 -31 -55 -66zM229 205q-2 -41 25 -67.5t68 -28.5q39 -2 65.5 24.5t28.5 67.5q2 39 -24.5 65.5t-65.5 28.5t-67 -24.5t-30 -65.5zM895 1272q-6 -39 27.5 -64.5t74.5 -25.5q68 0 80 51q10 41 -22.5 67.5t-75.5 26.5q-74 0 -84 -55z" />
<glyph unicode="&#xef;" horiz-adv-x="1351" d="M25 586q0 315 219 428q51 27 125 22q63 -4 99 -47t34 -106q-2 -53 -49 -117q-33 -45 -33 -109q0 -43 18 -71q66 -100 191 -101q80 0 125 29q88 55 100 180q8 84 -23 142q4 -61 -43 -96t-110 -31q-74 4 -121 48t-47 115q0 86 56.5 137.5t142.5 47.5q129 -6 200 -125 q61 -100 60 -238q-2 -119 -70 -200q-98 -121 -274 -117q-137 2 -226 78q-96 80 -92 215q2 70 35 125q20 23 47 79q6 59 -59 60q-63 0 -133 -109q-55 -137 -56 -245q0 -342 293 -447q96 -35 211 -31q80 2 103 7q193 31 315 206q86 123 86 314q0 252 -137 389 q-115 115 -408 119q-301 4 -524 -105v113q133 37 133 74q0 6 -8 12q-43 27 -43 76q0 156 459 155q565 0 565 -250q0 -94 -70 -133q154 -166 154 -426q0 -301 -162 -477q-166 -182 -465 -182q-158 0 -248 35q-371 143 -370 557zM295 1294q-4 -14 29 -41q6 -6 6 -14t-8 -20 q129 23 284 22q150 0 228 -12q104 -16 188 -68q51 14 41 68q-27 127 -432 127q-326 0 -336 -62zM618 874q6 -66 78 -57q66 6 58 78q-6 65 -78 57q-66 -6 -58 -78z" />
<glyph unicode="&#xf0;" horiz-adv-x="1341" d="M23 424q0 121 63.5 213t177.5 123q39 10 107 10h135q-8 162 -135 164q-141 2 -148 -111q-2 -27 10 -49h-118q-2 12 -9 33q0 117 62 168q37 31 51 37q-78 37 -78 129q0 213 439 215q76 0 194 -15q229 -29 230 -176q0 -39 -46 -88q39 35 78 82q104 127 105 184h119 q6 -78 -121 -233q-27 -33 -92 -84q76 0 120 -84q16 -31 4 -90q-20 -92 -139 -96q109 -37 168.5 -126t59.5 -206q0 -262 -244 -373q-154 -70 -377 -69q-219 0 -373 69q-244 111 -243 373zM143 416q0 -115 86 -199q131 -127 412 -127t412 127q86 84 86 199q0 178 -131 235 q-51 23 -146 23h-205v53q0 80 13 135q29 127 164 168q29 27 34 35q18 25 19 68q2 115 -305 118q-313 4 -314 -118q0 -74 103 -91q86 -2 154.5 -51t86.5 -129q12 -53 13 -135v-53h-205q-205 0 -260 -158q-16 -47 -17 -100zM774 770h141q-41 16 -57 49q-29 55 -12 107 q-39 -14 -60 -60q-12 -37 -12 -96zM948 887q0 -63 60 -64q63 0 63 62q0 61 -59 61q-64 0 -64 -59z" />
<glyph unicode="&#xf1;" horiz-adv-x="1351" d="M25 586q0 315 219 428q51 27 125 22q63 -4 99 -47t34 -106q-2 -53 -49 -117q-33 -45 -33 -109q0 -43 18 -71q66 -100 191 -101q80 0 125 29q88 55 100 180q8 84 -23 142q4 -61 -43 -96t-110 -31q-74 4 -121 48t-47 115q0 86 56.5 137.5t142.5 47.5q129 -6 200 -125 q61 -100 60 -238q-2 -119 -70 -200q-98 -121 -274 -117q-137 2 -226 78q-96 80 -92 215q2 70 35 125q20 23 47 79q6 59 -59 60q-63 0 -133 -109q-55 -137 -56 -245q0 -342 293 -447q96 -35 211 -31q80 2 103 7q193 31 315 206q86 123 86 314q0 268 -137 389q-78 70 -213 69 h-539q-178 0 -178 150q0 225 557 225q508 0 563 -202q8 -31 8 -54q1 -92 -71 -151q131 -162 131 -402q0 -301 -162 -477q-166 -182 -465 -182q-158 0 -248 35q-371 143 -370 557zM209 1243q4 -49 104 -49h500q164 0 242 -57q39 51 30 92q-23 127 -436 127q-295 0 -385 -47 q-59 -31 -55 -66zM618 874q6 -66 78 -57q66 6 58 78q-6 65 -78 57q-66 -6 -58 -78z" />
<glyph unicode="&#xf2;" horiz-adv-x="1363" d="M20 549q0 182 74 325q92 178 260 170q137 -6 152 -120q4 -27 -15.5 -86.5t-17.5 -83.5q12 -133 180 -133q63 0 109.5 34.5t54.5 96.5q-47 -37 -117 -37q-76 0 -125 41t-49 114q0 172 197 172q98 0 156 -81q51 -74 51 -177q0 -131 -80 -198.5t-213 -67.5q-125 0 -201 57 q-86 66 -82 187q12 41 29 127q2 49 -49 49q-45 0 -103 -70q-90 -111 -90 -342q0 -143 68 -268q82 -150 213 -149q86 0 86 81q0 -16 -6 -16q-14 0 -58 64q-63 94 -63 118q0 145 264 146q268 0 268 -156q0 -20 -64.5 -85.5t-64.5 -78.5q0 -76 107 -76q150 0 221 193 q51 137 49 330q-2 254 -137 389q-115 115 -412 119q-309 4 -532 -105v113q147 37 147 78q0 6 -8 10q-43 27 -43 76q0 154 453 153q215 0 325 -24q250 -55 250 -219q0 -94 -76 -140q150 -162 154 -426q5 -231 -61 -411q-39 -109 -117 -174q-84 -72 -195 -72q-246 0 -245 190 q0 63 32 99q10 10 64 37q33 16 33 32q0 25 -62 43q-41 12 -80 13q-145 0 -145 -52q0 -18 37 -41q49 -31 53 -34q33 -35 33 -101q0 -186 -215 -182q-203 4 -308 184q-86 147 -86 365zM309 1296q-4 -14 29 -41q6 -6 6 -14t-8 -20q135 20 278 20q150 0 230 -12q106 -16 190 -68 q20 2 32.5 24.5t8.5 43.5q-27 127 -436 127q-319 0 -330 -60zM639 879q0 -31 26.5 -49.5t57.5 -16.5q72 4 74 61q2 33 -24.5 53.5t-59.5 18.5q-74 -4 -74 -67z" />
<glyph unicode="&#xf3;" horiz-adv-x="1351" d="M25 586q0 315 219 428q51 27 125 22q63 -4 99 -47t34 -106q-2 -53 -49 -117q-33 -45 -33 -109q0 -43 18 -71q66 -100 191 -101q80 0 125 29q88 55 100 180q8 84 -23 142q4 -61 -43 -96t-110 -31q-74 4 -121 48t-47 115q0 86 56.5 137.5t142.5 47.5q129 -6 200 -125 q61 -100 60 -238q-2 -119 -70 -200q-98 -121 -274 -117q-137 2 -226 78q-96 80 -92 215q2 70 35 125q20 23 47 79q6 59 -59 60q-63 0 -133 -109q-55 -137 -56 -245q0 -342 293 -447q96 -35 211 -31q80 2 103 7q193 31 315 206q86 123 86 314q0 268 -137 389q-78 70 -213 69 h-539q-178 0 -178 150q0 225 557 225q238 0 334 -18q225 -43 235 -178q4 -53 -27.5 -100.5t-82.5 -63.5q172 -152 172 -449q0 -301 -162 -477q-166 -182 -465 -182q-158 0 -248 35q-371 143 -370 557zM209 1243q4 -49 104 -49h488q-25 23 -29 76q-4 55 29 82q-37 4 -152 4 q-295 0 -385 -47q-59 -31 -55 -66zM618 874q6 -66 78 -57q66 6 58 78q-6 65 -78 57q-66 -6 -58 -78zM895 1272q-6 -39 27.5 -64.5t74.5 -25.5q68 0 80 51q10 41 -22.5 67.5t-75.5 26.5q-74 0 -84 -55z" />
<glyph unicode="&#xf4;" horiz-adv-x="1363" d="M20 549q0 182 74 325q92 178 260 170q137 -6 152 -120q4 -27 -15.5 -86.5t-17.5 -83.5q12 -133 180 -133q63 0 109.5 34.5t54.5 96.5q-47 -37 -117 -37q-76 0 -125 41t-49 114q0 172 197 172q98 0 156 -81q51 -74 51 -177q0 -131 -80 -198.5t-213 -67.5q-125 0 -201 57 q-86 66 -82 187q12 41 29 127q2 49 -49 49q-45 0 -103 -70q-90 -111 -90 -342q0 -143 68 -268q82 -150 213 -149q86 0 86 81q0 -16 -6 -16q-14 0 -58 64q-63 94 -63 118q0 145 264 146q268 0 268 -156q0 -20 -64.5 -85.5t-64.5 -78.5q0 -76 107 -76q150 0 221 193 q53 143 49 330q-6 264 -141 385q-82 73 -221 73h-539q-178 0 -178 150q0 225 557 225q508 0 563 -202q6 -23 6 -54q0 -94 -61 -143q61 -63 100 -193q35 -115 35 -217q0 -432 -176 -583q-86 -74 -197 -74q-246 0 -245 190q0 63 32 99q10 10 64 37q33 16 33 32q0 25 -62 43 q-41 12 -80 13q-145 0 -145 -52q0 -18 37 -41q49 -31 53 -34q33 -35 33 -101q0 -186 -215 -182q-203 4 -308 184q-86 147 -86 365zM209 1243q4 -49 104 -49h500q164 0 242 -57q39 51 30 92q-23 127 -436 127q-295 0 -385 -47q-59 -31 -55 -66zM639 879q0 -31 26.5 -49.5 t57.5 -16.5q72 4 74 61q2 33 -24.5 53.5t-59.5 18.5q-74 -4 -74 -67z" />
<glyph unicode="&#xf5;" horiz-adv-x="1329" d="M23 440q0 199 170 287q98 51 231 51h143q-4 76 -52 119t-124 43q-178 0 -178 -162h-121q-2 125 88 199q82 68 211 67q305 0 309 -366h-245q-131 0 -213 -55q-100 -66 -92 -191q20 -322 477 -321q233 0 362 145q123 137 133 375t-143 375q-143 129 -385 131 q-311 4 -514 -105v113q145 47 145 78q0 6 -8 10q-43 27 -43 76q0 94 186 131q113 23 250 22q563 0 564 -250q0 -100 -80 -149q150 -162 149 -412q0 -297 -153 -469q-160 -182 -453 -180q-250 2 -412 94q-203 115 -202 344zM307 1296q-4 -14 29 -41q6 -6 6 -14t-8 -20 q123 20 262 20q248 0 403 -96q51 10 52 61q0 150 -430 150q-303 0 -314 -60z" />
<glyph unicode="&#xf6;" horiz-adv-x="1363" d="M20 549q0 182 74 325q92 178 260 170q137 -6 152 -120q4 -27 -15.5 -86.5t-17.5 -83.5q12 -133 180 -133q63 0 109.5 34.5t54.5 96.5q-47 -37 -117 -37q-76 0 -125 41t-49 114q0 172 197 172q98 0 156 -81q51 -74 51 -177q0 -131 -80 -198.5t-213 -67.5q-125 0 -201 57 q-86 66 -82 187q12 41 29 127q2 49 -49 49q-45 0 -103 -70q-90 -111 -90 -342q0 -143 68 -268q82 -150 213 -149q86 0 86 81q0 -16 -6 -16q-14 0 -58 64q-63 94 -63 118q0 145 264 146q268 0 268 -156q0 -20 -64.5 -85.5t-64.5 -78.5q0 -76 107 -76q150 0 221 193 q53 144 49 330q-6 272 -137 389q-78 70 -213 69h-551q-178 0 -178 150q0 225 569 225q262 0 377 -28q182 -45 191 -168q4 -53 -27 -100.5t-82 -63.5q172 -152 172 -449q0 -432 -176 -583q-86 -74 -197 -74q-246 0 -245 190q0 63 32 99q10 10 64 37q33 16 33 32q0 25 -62 43 q-41 12 -80 13q-145 0 -145 -52q0 -18 37 -41q49 -31 53 -34q33 -35 33 -101q0 -186 -215 -182q-203 4 -308 184q-86 147 -86 365zM209 1243q4 -49 104 -49h500q-25 23 -29 76q-4 55 29 82q-37 4 -151 4q-307 0 -398 -47q-59 -31 -55 -66zM639 879q0 -31 26.5 -49.5 t57.5 -16.5q72 4 74 61q2 33 -24.5 53.5t-59.5 18.5q-74 -4 -74 -67zM907 1272q-6 -39 28 -64.5t75 -25.5q68 0 80 51q10 41 -23 67.5t-76 26.5q-74 0 -84 -55z" />
<glyph unicode="&#xf7;" horiz-adv-x="1323" d="M23 506q0 -182 67 -377q14 -39 62 -119h133q-166 227 -150 508q12 199 90 318q51 78 133 75q23 0 35 -12q-59 -72 -59 -133h123q2 10 8 29q63 143 291 143q106 0 167.5 -36t108.5 -130h-330q-238 0 -317 -80q-29 -23 -80 -80q-80 -90 -80 -225q0 -141 90 -242 q84 -92 226 -129q74 -18 215 -22q262 -6 368 74v-342h-684q-80 0 -80 71q0 51 64 131h-121q-53 -57 -61 -123q-10 -80 29.5 -130t119.5 -50h850v592h-108q-39 -57 -156 -94q-66 -20 -219 -23q-164 -2 -275 60q-137 76 -139 227q-2 133 121 225q57 43 115 54q35 6 116 6h473 q-2 14 -6 51q-45 317 -409 317q-170 0 -262 -55q-37 37 -121 39q-150 2 -244 -133q-78 -111 -98 -273q-6 -49 -6 -112z" />
<glyph unicode="&#xf8;" horiz-adv-x="1128" d="M20 387q0 -172 127 -276q113 -95 293 -111q154 -14 269 0q131 16 209 63q0 -86 -29 -135q-90 -154 -344 -157q-154 -2 -246 32q-139 53 -133 183h-117q-6 -23 -6 -47q0 -66 51 -134q111 -143 408 -143q342 0 471 172q74 98 74 311v72h-127q-29 -51 -152 -94 q-53 -18 -215 -23q-162 -4 -274 60q-137 76 -140 227q-2 139 121 225q84 59 232 60h473q-2 14 -7 51q-45 317 -409 317q-115 0 -184 -20q-102 -31 -177 -121q-59 -72 -59 -133h123q2 10 8 29q63 143 291 143q106 0 167.5 -36t108.5 -130h-329q-276 0 -398 -158 q-80 -104 -80 -227z" />
<glyph unicode="&#xf9;" horiz-adv-x="1329" d="M23 440q0 199 170 287q98 51 231 51h143q-4 76 -52 119t-124 43q-178 0 -178 -162h-121q-2 125 88 199q82 68 211 67q305 0 309 -366h-245q-131 0 -213 -55q-100 -66 -92 -191q20 -322 477 -321q233 0 362 145q123 137 133 375q10 225 -135 366q-92 90 -250 90h-477 q-178 0 -178 150q0 225 526 225q225 0 320 -18q240 -47 239 -211q0 -113 -100 -146q176 -162 176 -436q0 -297 -153 -469q-160 -182 -453 -180q-250 2 -412 94q-203 115 -202 344zM209 1243q4 -49 104 -49h459q-27 33 -27 76q0 53 29 82q-37 4 -156 4q-420 0 -409 -113z M862 1264q-6 -39 28 -64.5t75 -25.5q68 0 79 51q10 41 -22.5 67.5t-75.5 26.5q-74 0 -84 -55z" />
<glyph unicode="&#xfa;" horiz-adv-x="1329" d="M23 440q0 199 170 287q98 51 231 51h143q-4 76 -52 119t-124 43q-178 0 -178 -162h-121q-2 125 88 199q82 68 211 67q305 0 309 -366h-245q-131 0 -213 -55q-100 -66 -92 -191q20 -322 477 -321q233 0 362 145q123 137 133 375q10 225 -135 366q-92 90 -250 90h-477 q-178 0 -178 150q0 225 526 225q205 0 320 -26q240 -55 239 -224q0 -82 -73 -149q150 -162 149 -412q0 -297 -153 -469q-160 -182 -453 -180q-250 2 -412 94q-203 115 -202 344zM209 1243q4 -49 104 -49h439q164 0 241 -57q61 31 49 94q-23 125 -424 125q-420 0 -409 -113z " />
<glyph unicode="&#xfb;" horiz-adv-x="2347" />
<glyph unicode="&#xfc;" horiz-adv-x="2347" />
<glyph unicode="&#xfd;" horiz-adv-x="1337" d="M20 428q0 121 62.5 211t177.5 121q39 10 107 10h120q-8 162 -120 164q-141 2 -148 -111q-2 -27 10 -49h-118q-10 27 -11 64q0 88 72 145q24 21 47 29q-78 37 -78 129q0 213 439 215q78 0 194 -15q225 -29 225 -174q0 -55 -38 -104q86 76 167 207q45 72 48 104h118 q-12 -94 -147 -262q-33 -41 -98 -88q20 -8 57 -29q70 -59 94 -161q8 -35 4 -97q-4 -61 -18 -94q16 -18 26 -41q41 -86 43 -160q2 -76 -20 -149q-96 -311 -600 -311q-496 0 -594 309q-20 66 -21 137zM141 416q23 -326 496 -326q281 0 412 127q86 84 86 203q0 45 -13 92 q-59 -70 -147 -70q-94 0 -137 72q-37 61 -31 160h-168v53q0 92 14 137q47 150 185 168q51 37 47 101q-6 78 -123 104q-55 12 -180 14q-313 4 -314 -118q0 -72 103 -93q184 -4 223 -178q12 -55 12 -135v-53h-182q-104 0 -143 -15q-82 -31 -123 -137q-20 -51 -17 -106z M758 770h57q4 25 19 78q12 27 34 84q-102 -23 -110 -162zM911 674q-10 -119 54 -133q57 -14 102 71q-62 62 -156 62zM922 772q111 0 174 -49q10 170 -113 205q-35 -53 -61 -156z" />
<glyph unicode="&#xfe;" horiz-adv-x="1337" d="M20 428q0 121 62.5 211t177.5 121q39 10 107 10h120q-8 162 -120 164q-141 2 -148 -111q-2 -27 10 -49h-118q-10 27 -11 64q0 100 86 155q72 47 179 47q188 0 229 -178q12 -53 12 -135v-53h-182q-104 0 -143 -15q-82 -31 -123 -137q-20 -51 -17 -106q23 -326 496 -326 q281 0 412 127q86 84 86 203q0 45 -13 92q-59 -70 -147 -70q-94 0 -137 72q-37 61 -31 160h-168v626q0 37 -31 50q-27 10 -58.5 -10.5t-45.5 -47.5v117q47 55 121 49q61 -6 86 -53q55 55 141 51q166 -8 172 -176q2 -82 -55.5 -130t-141.5 -48q-49 0 -77 18v-125 q76 53 184 47q80 78 106 117q51 74 68 103q35 59 37 98h119q-10 -102 -127 -248q-39 -49 -90 -86q43 -16 59 -31q70 -59 94 -161q8 -35 4 -97q-4 -61 -18 -94q16 -18 26 -41q41 -86 43 -160q2 -76 -20 -149q-96 -311 -600 -311q-496 0 -594 309q-20 66 -21 137zM750 1212 q37 -27 79 -20q70 10 78 82q0 80 -82 84q-31 2 -51 -17q-8 -6 -24 -34v-95zM758 770h57q2 16 19 78q2 12 30 84q-98 -23 -106 -162zM911 674q-10 -119 54 -133q57 -14 102 71q-62 62 -156 62zM922 772q111 0 174 -49q10 170 -113 205q-35 -53 -61 -156z" />
<glyph unicode="&#xff;" horiz-adv-x="1118" d="M20 387q0 -141 91 -242q84 -92 225 -129q74 -18 215 -22q262 -6 369 74v-342h-684q-80 0 -80 71q0 51 63 131h-121q-53 -57 -61 -123q-10 -80 29.5 -130t119.5 -50h850v592h-108q-39 -57 -156 -94q-66 -20 -219 -23q-164 -2 -274 60q-137 76 -140 227q-2 133 121 225 q57 43 115 54q35 6 117 6h473q-2 14 -7 51q-45 317 -409 317q-115 0 -184 -20q-103 -31 -177 -121q-59 -72 -59 -133h123q2 10 8 29q63 143 291 143q106 0 167.5 -36t108.5 -130h-329q-238 0 -318 -80q-29 -23 -80 -80q-80 -90 -80 -225z" />
<glyph unicode="&#x152;" horiz-adv-x="1886" d="M10 41l164 293q-121 115 -111 301q10 188 185 317q98 74 311 84l154 273h127l-160 -283q139 -12 240 -86q2 2 6 8l2 4q-94 57 -94 162q-1 60 28 103q61 90 178 116q72 16 220 17q184 0 274 -25q172 -47 172 -172q0 -106 -98 -143q78 -35 125 -129q74 -150 71 -373 q-6 -524 -354 -520q-260 2 -289 284h117q4 -88 55 -137t137 -41q121 10 177 156q39 102 39 250q0 420 -193 420q-61 0 -110.5 -37t-49.5 -97v-194h-110v182q0 55 -31 100.5t-84 47.5q-68 2 -107 -54q131 -190 127 -389q-4 -233 -149 -369.5t-379 -123.5q-117 6 -340 82 q-18 6 -45 6q-68 0 -94 -43zM178 604q0 -94 53 -166l267 488q-102 -4 -183.5 -59.5t-115.5 -149.5q-20 -55 -21 -113zM199 152q18 20 53 20q29 0 205 -61q53 -18 143 -21q180 -4 294 102.5t116 286.5q4 217 -136 348q-83 81 -251 97l-129 -232q57 47 139 45t138 -67.5 t56 -149.5q0 -141 -95 -221t-238 -82q-113 -2 -232 51zM317 369q92 -43 148 -45q129 -6 197 61q-39 -14 -76 -14q-57 0 -105 39q-69 59 -57 151zM530 551q0 -35 25 -59.5t59 -24.5q35 0 59.5 23.5t24.5 58.5q0 86 -84 86q-35 0 -59.5 -24.5t-24.5 -59.5zM950 1126 q-6 -31 13.5 -64.5t50.5 -41.5q41 12 73 12q131 4 193 -102q41 51 86 74q-137 31 -137 145q0 78 55 102q-104 2 -158 -8q-158 -31 -176 -117zM1343 1167q-8 -84 113 -94q39 -4 78 10q49 16 53 52q6 45 -27.5 71.5t-80.5 30.5q-128 8 -136 -70z" />
<glyph unicode="&#x153;" horiz-adv-x="1015" d="M25 14q0 254 98 400q41 57 123 176q63 98 73 196q6 59 -14 99q-25 47 -82 45q-76 -2 -84 -82q-8 -78 25 -121h-119q-31 76 -20 141q12 80 70.5 125t137.5 41q197 -10 203 -215q4 -119 -55 -227l-115 -166q-109 -158 -114 -254q59 35 129 35q57 0 158.5 -50.5t158.5 -50.5 q90 0 147.5 58.5t65.5 148.5q8 106 -53 179q-39 45 -150 110q-152 90 -147 244q2 90 64.5 141t154.5 51q94 0 153.5 -51t59.5 -143q0 -51 -23 -107h-120q31 55 22 107q-14 86 -90 88q-84 4 -96 -82q-8 -61 32 -111q27 -33 103 -80q111 -70 158 -135q57 -82 55 -196 q-4 -154 -96.5 -241t-247.5 -91q-53 -2 -164 47q-117 49 -166 53q-106 6 -129 -82h-106zM188 1266q0 -240 281 -230q176 6 176 156q0 70 -44 110.5t-114 40.5q-127 0 -133 -112q-4 -70 54 -101q-106 20 -107 130q0 76 61 118q55 39 134 39q205 0 204 -178q0 -117 -69 -176 l119 2q55 70 55 192q0 125 -92 195q-82 63 -211 64q-129 0 -215 -60q-98 -68 -99 -190zM455 1192q0 55 51 49q41 -4 37 -53q-4 -45 -41 -45q-47 0 -47 49z" />
<glyph unicode="&#x178;" horiz-adv-x="540" d="M49 1137q0 90 63.5 153.5t153.5 63.5t153.5 -63.5t63.5 -153.5t-63.5 -153.5t-153.5 -63.5t-153.5 63.5t-63.5 153.5zM147 1137q0 -49 35 -82t84 -33t82 35t33 84t-35 81.5t-84 32.5t-82 -34.5t-33 -83.5z" />
<glyph unicode="&#x2c6;" horiz-adv-x="2007" d="M20 469q0 47 11 137h100q-2 -90 109 -92q145 -4 211 178q27 72 -2 148q-31 86 -107 86q-125 0 -125 -140q0 -35 10 -63h-116q-18 104 18 180q63 131 215 131q86 0 145.5 -52t65.5 -138q135 195 385 188q137 -4 234 -59q84 68 284 67q387 0 416 -368h-473q-82 0 -117 -6 q-57 -10 -115 -54q-123 -92 -120 -225q2 -152 137 -227q108 -62 272 -60q186 2 271 70q25 20 32 43h131l-118 -188q35 10 71 10q84 0 132 -49t48 -133q0 -125 -96 -193q-84 -59 -215 -59q-117 0 -160 22v119q47 -33 136 -33q145 0 184 72q16 31 16 57q0 66 -63 74 q-96 12 -182 -78h-125l106 170q-49 -10 -137 -10q-92 0 -133 4q-203 20 -326 133q-55 51 -80 127q-35 -96 -102 -154q-139 -117 -340 -114q-227 4 -356 129t-132 350zM133 451q8 -240 199 -320q70 -29 184 -33q127 -4 226.5 72t107.5 201q8 109 -52.5 186.5t-168.5 77.5 q-41 0 -54 -4q-23 -8 -55 -51q-82 -113 -182 -154q-39 -16 -96 -16q-91 0 -109 41zM606 731q23 4 45 4q104 0 184 -63.5t115 -163.5q33 123 201 221q74 43 256 43h330q-47 94 -108.5 130t-168.5 36q-233 0 -291 -143q-4 -10 -8 -29h-123q0 55 54 125q-74 35 -162 35 q-215 0 -324 -195z" />
<glyph unicode="&#x2dc;" horiz-adv-x="745" d="M180 1067q74 90 80 188q9 140 -59 220h159q47 -59 48 -187q0 -57 -27 -121.5t-68 -99.5h-133zM428 1067q74 90 80 188q9 140 -59 220h159q47 -59 47 -187q0 -57 -26.5 -121.5t-67.5 -99.5h-133z" />
<glyph unicode="&#x2000;" horiz-adv-x="847" />
<glyph unicode="&#x2001;" horiz-adv-x="1694" />
<glyph unicode="&#x2002;" horiz-adv-x="847" />
<glyph unicode="&#x2003;" horiz-adv-x="1694" />
<glyph unicode="&#x2004;" horiz-adv-x="564" />
<glyph unicode="&#x2005;" horiz-adv-x="423" />
<glyph unicode="&#x2006;" horiz-adv-x="282" />
<glyph unicode="&#x2007;" horiz-adv-x="282" />
<glyph unicode="&#x2008;" horiz-adv-x="211" />
<glyph unicode="&#x2009;" horiz-adv-x="338" />
<glyph unicode="&#x200a;" horiz-adv-x="94" />
<glyph unicode="&#x2010;" horiz-adv-x="716" d="M72 469v104h522v-104h-522z" />
<glyph unicode="&#x2011;" horiz-adv-x="716" d="M72 469v104h522v-104h-522z" />
<glyph unicode="&#x2012;" horiz-adv-x="716" d="M72 469v104h522v-104h-522z" />
<glyph unicode="&#x2013;" horiz-adv-x="163" d="M-950 1456q0 -225 280 -217q176 4 176 147q0 68 -45 106t-112 38q-127 0 -133 -107q-4 -66 53 -96q-106 20 -107 123q0 74 64 115q53 35 131 34q205 0 205 -167q0 -113 -70 -168l119 2q55 70 55 182q0 123 -94 188q-82 57 -209 58q-125 0 -211 -56q-102 -66 -102 -182z M-682 1386q0 51 49 46q16 0 27.5 -16.5t9.5 -33.5q-4 -43 -41 -43q-45 0 -45 47z" />
<glyph unicode="&#x2014;" horiz-adv-x="745" d="M78 1288q0 127 47 187h160q-68 -80 -60 -220q6 -98 80 -188h-133q-39 33 -66.5 100.5t-27.5 120.5zM326 1288q0 127 47 187h159q-68 -80 -59 -220q6 -98 80 -188h-133q-39 33 -66.5 100.5t-27.5 120.5z" />
<glyph unicode="&#x2018;" horiz-adv-x="524" d="M154 92q0 65 55 96q27 14 53 15q45 0 77 -32t32 -77t-31 -75.5t-76 -30.5q-47 0 -78.5 28.5t-31.5 75.5z" />
<glyph unicode="&#x2019;" horiz-adv-x="524" d="M154 92q0 65 55 96q27 14 53 15q45 0 77 -32t32 -77t-31 -75.5t-76 -30.5q-47 0 -78.5 28.5t-31.5 75.5z" />
<glyph unicode="&#x201a;" horiz-adv-x="1886" d="M10 41l164 293q-121 115 -111 301q10 188 185 317q98 74 311 84l154 273h127l-160 -283q139 -12 240 -86q2 2 6 8l2 4q-94 57 -94 162q-1 160 192 213q82 23 234 23q444 0 444 -207q0 -100 -84 -142q70 -33 113 -120q74 -152 71 -373q-6 -524 -354 -520q-260 2 -289 284 h117q4 -88 55 -137t137 -41q121 10 177 156q39 102 39 250q0 420 -193 420q-61 0 -110.5 -37t-49.5 -97v-194h-110v182q0 55 -31 100.5t-84 47.5q-68 2 -107 -54q131 -190 127 -389q-4 -233 -149 -369.5t-379 -123.5q-117 6 -340 82q-18 6 -45 6q-68 0 -94 -43zM178 604 q0 -94 53 -166l267 488q-102 -4 -183.5 -59.5t-115.5 -149.5q-20 -55 -21 -113zM199 152q18 20 53 20q29 0 205 -61q53 -18 143 -21q180 -4 294 102.5t116 286.5q4 217 -136 348q-83 81 -251 97l-129 -232q57 47 139 45t138 -67.5t56 -149.5q0 -141 -95 -221t-238 -82 q-113 -2 -232 51zM317 369q92 -43 148 -45q129 -6 197 61q-39 -14 -76 -14q-57 0 -105 39q-69 59 -57 151zM530 551q0 -35 25 -59.5t59 -24.5q35 0 59.5 23.5t24.5 58.5q0 86 -84 86q-35 0 -59.5 -24.5t-24.5 -59.5zM950 1126q-6 -31 13.5 -64.5t50.5 -41.5q41 12 73 12 q131 4 193 -102q70 98 182 102q106 14 119 94q8 57 -72 93q-59 25 -129 28q-186 8 -254 -4q-158 -31 -176 -117z" />
<glyph unicode="&#x201c;" horiz-adv-x="1886" d="M10 41l164 293q-121 115 -111 301q10 188 185 317q98 74 311 84l154 273h127l-160 -283q139 -12 240 -86q47 88 167 92q131 4 193 -102q80 100 217 98q311 -6 307 -520q-4 -524 -354 -520q-260 2 -289 284h117q4 -88 55 -137t137 -41q121 10 177 156q39 102 39 250 q0 420 -193 420q-61 0 -110.5 -37t-49.5 -97v-194h-110v182q0 55 -31 100.5t-84 47.5q-68 2 -107 -54q131 -190 127 -389q-4 -233 -149.5 -369t-378.5 -124q-117 6 -340 82q-18 6 -45 6q-68 0 -94 -43zM178 604q0 -94 53 -166l267 488q-102 -4 -183.5 -59.5t-115.5 -149.5 q-20 -55 -21 -113zM199 152q18 20 53 20q29 0 205 -61q53 -18 143 -21q180 -4 294 102.5t116 286.5q4 217 -136 348q-84 80 -251 97l-129 -232q57 47 139 45t138 -67.5t56 -149.5q0 -141 -95 -221t-238 -82q-113 -2 -232 51zM317 369q92 -43 148 -45q129 -6 197 61 q-39 -14 -76 -14q-57 0 -105 39q-69 59 -57 151zM530 551q0 -35 25 -59.5t59 -24.5q35 0 59.5 23.5t24.5 58.5q0 86 -84 86q-35 0 -59.5 -24.5t-24.5 -59.5zM858 1290q0 -143 125 -194q84 -35 277 -35q96 0 161 31q88 41 88 125q0 152 -225 151q-78 0 -135 -20 q-84 -29 -84 -93q0 -74 76 -100q-158 20 -158 133q0 84 123 125q86 29 190 29q324 0 324 -178q0 -115 -98 -174h137q80 68 80 192q0 137 -158 207q-117 51 -276 51q-168 0 -283 -45q-164 -63 -164 -205zM1184 1225q0 57 106 57q100 0 101 -57q0 -63 -103 -64q-104 1 -104 64 z" />
<glyph unicode="&#x201d;" horiz-adv-x="524" d="M154 92q0 65 55 96q27 14 53 15q45 0 77 -32t32 -77t-31 -75.5t-76 -30.5q-47 0 -78.5 28.5t-31.5 75.5z" />
<glyph unicode="&#x201e;" horiz-adv-x="1572" />
<glyph unicode="&#x2022;" horiz-adv-x="942" d="M23 8h817v821h-817v-821z" />
<glyph unicode="&#x2026;" horiz-adv-x="2361" d="M35 332v133q135 150 186 194l119 105q66 57 68 82q4 43 -24 61.5t-73 16.5q-88 -2 -106 -103q-8 -43 12 -84h-121q-6 29 -6 58q0 137 100 200q61 39 138 37q158 -4 188 -133q195 139 422 137q168 -2 268 -69q88 74 221 73q305 0 310 -366h-246q-131 0 -213 -56 q-100 -66 -92 -190q20 -322 477 -322q233 0 362 146q123 137 134 375q10 248 -134 434q-154 203 -397 192q-156 -6 -233 -41q-113 -49 -185 -151h-125q127 299 535 299q305 0 485 -205q174 -195 174 -504q0 -297 -153 -471q-160 -184 -453 -182q-250 2 -411 94 q-203 115 -203 344q0 199 170 287q98 51 231 51h144q-4 76 -52.5 119t-124.5 43q-178 0 -178 -162h-121q1 71 17 98q-90 53 -203 54q-193 0 -346 -103q160 14 270 -73q168 -135 166 -336q-2 -199 -147 -314q-133 -106 -338 -106q-170 0 -264 35q-139 53 -172 188 q-6 25 -7 43q0 16 11.5 50t11.5 48q0 25 -21 25q-37 0 -71 -51zM180 467q70 -14 70 -82q0 -14 -14.5 -54t-8.5 -69q33 -168 318 -164q152 2 252 80q113 86 112 232q0 145 -97 235t-243 88q-117 -2 -225 -106q-55 -54 -164 -160z" />
<glyph unicode="&#x202f;" horiz-adv-x="338" />
<glyph unicode="&#x2039;" horiz-adv-x="1595" />
<glyph unicode="&#x203a;" horiz-adv-x="1474" />
<glyph unicode="&#x205f;" horiz-adv-x="423" />
<glyph unicode="&#x2122;" horiz-adv-x="686" d="M139 582v112q94 10 127 97q20 55 21 170v294q0 82 50 148.5t130 75.5h102v-103h-67q-82 -18 -82 -153v-293q0 -174 -133 -291q133 -100 133 -289v-291q0 -135 82 -153h67v-103h-102q-80 8 -130 75t-50 149v292q0 115 -21 168q-33 84 -127 95z" />
<glyph unicode="&#x25fc;" horiz-adv-x="798" d="M0 0v799h799v-799h-799z" />
</font>
</defs>
</svg>
